<?xml version="1.0" encoding="utf-8" standalone="no"?>
<!DOCTYPE svg PUBLIC "-//W3C//DTD SVG 1.1//EN"
  "http://www.w3.org/Graphics/SVG/1.1/DTD/svg11.dtd">
<!-- Created with matplotlib (http://matplotlib.org/) -->
<svg height="430pt" version="1.1" viewBox="0 0 432 430" width="432pt" xmlns="http://www.w3.org/2000/svg" xmlns:xlink="http://www.w3.org/1999/xlink">
 <defs>
  <style type="text/css">
*{stroke-linecap:butt;stroke-linejoin:round;stroke-miterlimit:100000;}
  </style>
 </defs>
 <g id="figure_1">
  <g id="patch_1">
   <path d="M 0 430.2 
L 432 430.2 
L 432 0 
L 0 0 
z
" style="fill:#ffffff;"/>
  </g>
  <g id="axes_1">
   <g id="patch_2">
    <path d="M 67.213125 102.547805 
L 412.200115 102.547805 
L 412.200115 32.245108 
L 67.213125 32.245108 
z
" style="fill:#ffffff;"/>
   </g>
   <g id="line2d_1">
    <path clip-path="url(#p9e24ab4db3)" d="M 73.84749 96.689247 
L 73.960042 93.441816 
L 74.358192 87.967645 
L 75.028798 81.811211 
L 75.839144 76.14338 
L 76.91936 70.08657 
L 78.281154 63.910086 
L 79.48727 59.364536 
L 80.846602 55.02016 
L 82.350341 50.98579 
L 83.986058 47.362491 
L 85.142213 45.220649 
L 86.344693 43.325982 
L 87.587582 41.699608 
L 88.864514 40.359656 
L 90.168743 39.321063 
L 91.49322 38.595406 
L 92.830669 38.190774 
L 94.173669 38.111676 
L 95.514739 38.358994 
L 96.846418 38.929973 
L 98.161349 39.818246 
L 99.452364 41.013913 
L 100.71256 42.503646 
L 101.935378 44.270839 
L 103.114675 46.295793 
L 104.789792 49.766426 
L 106.337667 53.678678 
L 107.744765 57.934541 
L 109.001081 62.427401 
L 110.100384 67.044706 
L 111.318487 73.194684 
L 112.259413 79.086792 
L 113.074175 85.692229 
L 113.604396 91.909895 
L 113.807021 96.689206 
L 113.860931 94.69244 
L 114.144476 90.020882 
L 114.681819 84.37994 
L 115.578397 77.561464 
L 116.591722 71.574594 
L 117.884929 65.401889 
L 119.040326 60.815541 
L 120.350972 56.394018 
L 121.809277 52.248083 
L 123.403951 48.481598 
L 125.120289 45.188918 
L 126.323451 43.298309 
L 127.566925 41.676302 
L 128.844339 40.340978 
L 130.148942 39.30722 
L 131.473679 38.586552 
L 132.811273 38.187007 
L 134.154301 38.11304 
L 135.49528 38.365473 
L 136.826752 38.941494 
L 138.141363 39.834682 
L 139.431946 41.03508 
L 140.691605 42.529308 
L 141.913785 44.300709 
L 143.092352 46.32954 
L 144.766219 49.80527 
L 146.312683 53.721645 
L 147.718248 57.980555 
L 148.972945 62.475309 
L 150.070584 67.093308 
L 151.286472 73.242319 
L 152.225276 79.131342 
L 153.037661 85.730161 
L 153.565644 91.936469 
L 153.766552 96.689085 
L 153.821184 94.674765 
L 154.106414 89.989978 
L 154.645791 84.340315 
L 155.544826 77.515866 
L 156.560308 71.526481 
L 157.855738 65.353399 
L 159.012787 60.768187 
L 160.325026 56.348986 
L 161.784824 52.206501 
L 163.380854 48.444507 
L 165.098377 45.157248 
L 166.302219 43.270703 
L 167.546276 41.653067 
L 168.82417 40.322373 
L 170.129145 39.293454 
L 171.454141 38.577777 
L 172.791878 38.183322 
L 174.134931 38.114484 
L 175.475819 38.372032 
L 176.807083 38.953094 
L 178.121371 39.851193 
L 179.411521 41.056319 
L 180.67064 42.555038 
L 181.892182 44.330644 
L 183.070018 46.363345 
L 184.742631 49.844161 
L 186.287684 53.764649 
L 187.691714 58.026594 
L 188.944791 62.52323 
L 190.040768 67.141911 
L 191.254441 73.289938 
L 192.191124 79.17586 
L 193.001133 85.768043 
L 193.526882 91.962976 
L 193.726083 96.688884 
L 193.781444 94.657014 
L 194.068364 89.959012 
L 194.609778 84.300644 
L 195.511272 77.47024 
L 196.528912 71.478356 
L 197.826566 65.304915 
L 198.985266 60.720851 
L 200.299096 56.303984 
L 201.760385 52.16496 
L 203.35777 48.407469 
L 205.076476 45.125639 
L 206.280997 43.243163 
L 207.525636 41.629904 
L 208.804009 40.303844 
L 210.109353 39.279765 
L 211.434606 38.569082 
L 212.772484 38.179716 
L 214.115561 38.116009 
L 215.456355 38.378671 
L 216.787409 38.964772 
L 218.101372 39.867781 
L 219.391088 41.077631 
L 220.649666 42.580837 
L 221.870568 44.360642 
L 223.04767 46.397207 
L 224.719029 49.883102 
L 226.262669 53.807691 
L 227.665163 58.07266 
L 228.916621 62.571165 
L 230.010933 67.190514 
L 231.222392 73.337541 
L 232.156955 79.220345 
L 232.964591 85.805875 
L 233.488111 91.989415 
L 233.685615 96.688601 
L 233.74171 94.639189 
L 234.030325 89.927984 
L 234.573778 84.260926 
L 235.477734 77.424586 
L 236.497533 71.43022 
L 237.79741 65.256437 
L 238.957762 60.673534 
L 240.273182 56.259012 
L 241.735962 52.123461 
L 243.334699 48.370482 
L 245.054587 45.094091 
L 246.259785 43.215689 
L 247.505004 41.606811 
L 248.783854 40.285389 
L 250.089566 39.266153 
L 251.415074 38.560465 
L 252.753091 38.176192 
L 254.096191 38.117615 
L 255.436889 38.385389 
L 256.767731 38.976528 
L 258.081368 39.884444 
L 259.370647 41.099015 
L 260.628683 42.606704 
L 261.848943 44.390703 
L 263.025311 46.431128 
L 264.695413 49.92209 
L 266.237639 53.85077 
L 267.638596 58.118751 
L 268.888433 62.619113 
L 269.981081 67.239119 
L 271.190326 73.385127 
L 272.122771 79.264798 
L 272.928035 85.843656 
L 273.44933 92.015786 
L 273.645146 96.688239 
L 273.701983 94.621289 
L 273.992297 89.896893 
L 274.537793 84.221162 
L 275.444213 77.378905 
L 276.466171 71.382073 
L 277.768273 65.207964 
L 278.930275 60.626235 
L 280.247285 56.214071 
L 281.711554 52.082005 
L 283.311642 48.333548 
L 285.032709 45.062605 
L 286.238582 43.188282 
L 287.484381 41.583789 
L 288.763706 40.267008 
L 290.069784 39.252619 
L 291.395545 38.551929 
L 292.7337 38.172747 
L 294.07682 38.119302 
L 295.417421 38.392187 
L 296.748048 38.988363 
L 298.061358 39.901183 
L 299.350198 41.120472 
L 300.607691 42.632639 
L 301.827307 44.420828 
L 303.00294 46.465106 
L 304.671783 49.961126 
L 306.212593 53.893887 
L 307.612013 58.164867 
L 308.860228 62.667075 
L 309.951212 67.287723 
L 311.158243 73.432697 
L 312.08857 79.309218 
L 312.891466 85.881386 
L 313.41054 92.04209 
L 313.604677 96.687795 
L 313.662262 94.603313 
L 313.954281 89.865741 
L 314.501823 84.181351 
L 315.410708 77.333196 
L 316.434827 71.333914 
L 317.739152 65.159498 
L 318.902805 60.578954 
L 320.221404 56.169161 
L 321.68716 52.04059 
L 323.288598 48.296666 
L 325.010842 45.03118 
L 326.21739 43.160942 
L 327.463766 41.560838 
L 328.743564 40.248702 
L 330.050007 39.239162 
L 331.37602 38.543471 
L 332.71431 38.169383 
L 334.057448 38.121069 
L 335.39795 38.399066 
L 336.728362 39.000276 
L 338.041342 39.917998 
L 339.329742 41.142001 
L 340.586689 42.658642 
L 341.80566 44.451016 
L 342.980556 46.499142 
L 344.648139 50.000211 
L 346.187532 53.93704 
L 347.585412 58.211009 
L 348.832005 62.715049 
L 349.921325 67.336328 
L 351.126142 73.48025 
L 352.054354 79.353605 
L 352.854883 85.919065 
L 353.37174 92.068325 
L 353.564209 96.687271 
L 353.622548 94.585263 
L 353.916275 89.834527 
L 354.465866 84.141494 
L 355.377219 77.287459 
L 356.4035 71.285745 
L 357.71005 65.111038 
L 358.875351 60.531693 
L 360.195539 56.124282 
L 361.662782 51.999218 
L 363.265567 48.259837 
L 364.988986 44.999817 
L 366.196207 43.133669 
L 367.443159 41.537958 
L 368.723429 40.230471 
L 370.030234 39.225783 
L 371.356497 38.535093 
L 372.694921 38.1661 
L 374.038076 38.122916 
L 375.378477 38.406024 
L 376.708671 39.012267 
L 378.021319 39.934888 
L 379.309278 41.163602 
L 380.565678 42.684714 
L 381.784003 44.481267 
L 382.95816 46.533236 
L 384.624481 50.039343 
L 386.162455 53.980231 
L 387.558795 58.257177 
L 388.803765 62.763036 
L 389.89142 67.384933 
L 391.094025 73.527787 
L 392.020121 79.397959 
L 392.818287 85.956693 
L 393.332931 92.094493 
L 393.523741 96.686666 
L 393.58284 94.567138 
L 393.878281 89.803251 
L 394.429924 84.101592 
L 395.343747 77.241696 
L 396.37219 71.237565 
L 397.680964 65.062584 
L 398.847915 60.48445 
L 400.16969 56.079434 
L 401.638418 51.957888 
L 403.24255 48.223061 
L 404.967142 44.968515 
L 405.56575 44.004875 
L 405.56575 44.004875 
" style="fill:none;stroke:#ff8c00;stroke-linecap:square;stroke-width:2.0;"/>
   </g>
   <g id="patch_3">
    <path d="M 67.213125 32.245108 
L 412.200115 32.245108 
" style="fill:none;stroke:#000000;stroke-linecap:square;stroke-linejoin:miter;"/>
   </g>
   <g id="patch_4">
    <path d="M 67.213125 102.547805 
L 67.213125 32.245108 
" style="fill:none;stroke:#000000;stroke-linecap:square;stroke-linejoin:miter;"/>
   </g>
   <g id="patch_5">
    <path d="M 67.213125 102.547805 
L 412.200115 102.547805 
" style="fill:none;stroke:#000000;stroke-linecap:square;stroke-linejoin:miter;"/>
   </g>
   <g id="patch_6">
    <path d="M 412.200115 102.547805 
L 412.200115 32.245108 
" style="fill:none;stroke:#000000;stroke-linecap:square;stroke-linejoin:miter;"/>
   </g>
   <g id="matplotlib.axis_1">
    <g id="xtick_1">
     <g id="line2d_2">
      <defs>
       <path d="M 0 0 
L 0 -4 
" id="me59cd8c9ca" style="stroke:#000000;stroke-width:0.5;"/>
      </defs>
      <g>
       <use style="stroke:#000000;stroke-width:0.5;" x="73.8474901899" xlink:href="#me59cd8c9ca" y="102.547804687"/>
      </g>
     </g>
     <g id="line2d_3">
      <defs>
       <path d="M 0 0 
L 0 4 
" id="ma271c4e3b0" style="stroke:#000000;stroke-width:0.5;"/>
      </defs>
      <g>
       <use style="stroke:#000000;stroke-width:0.5;" x="73.8474901899" xlink:href="#ma271c4e3b0" y="32.2451082292"/>
      </g>
     </g>
     <g id="text_1">
      <!-- 0.0 -->
      <defs>
       <path d="M 10.6875 12.40625 
L 21 12.40625 
L 21 0 
L 10.6875 0 
z
" id="BitstreamVeraSans-Roman-2e"/>
       <path d="M 31.78125 66.40625 
Q 24.171875 66.40625 20.328125 58.90625 
Q 16.5 51.421875 16.5 36.375 
Q 16.5 21.390625 20.328125 13.890625 
Q 24.171875 6.390625 31.78125 6.390625 
Q 39.453125 6.390625 43.28125 13.890625 
Q 47.125 21.390625 47.125 36.375 
Q 47.125 51.421875 43.28125 58.90625 
Q 39.453125 66.40625 31.78125 66.40625 
M 31.78125 74.21875 
Q 44.046875 74.21875 50.515625 64.515625 
Q 56.984375 54.828125 56.984375 36.375 
Q 56.984375 17.96875 50.515625 8.265625 
Q 44.046875 -1.421875 31.78125 -1.421875 
Q 19.53125 -1.421875 13.0625 8.265625 
Q 6.59375 17.96875 6.59375 36.375 
Q 6.59375 54.828125 13.0625 64.515625 
Q 19.53125 74.21875 31.78125 74.21875 
" id="BitstreamVeraSans-Roman-30"/>
      </defs>
      <g transform="translate(64.3056151899 115.665929687)scale(0.12 -0.12)">
       <use xlink:href="#BitstreamVeraSans-Roman-30"/>
       <use x="63.623046875" xlink:href="#BitstreamVeraSans-Roman-2e"/>
       <use x="95.41015625" xlink:href="#BitstreamVeraSans-Roman-30"/>
      </g>
     </g>
    </g>
    <g id="xtick_2">
     <g id="line2d_4">
      <g>
       <use style="stroke:#000000;stroke-width:0.5;" x="140.956923902" xlink:href="#me59cd8c9ca" y="102.547804687"/>
      </g>
     </g>
     <g id="line2d_5">
      <g>
       <use style="stroke:#000000;stroke-width:0.5;" x="140.956923902" xlink:href="#ma271c4e3b0" y="32.2451082292"/>
      </g>
     </g>
     <g id="text_2">
      <!-- 0.2 -->
      <defs>
       <path d="M 19.1875 8.296875 
L 53.609375 8.296875 
L 53.609375 0 
L 7.328125 0 
L 7.328125 8.296875 
Q 12.9375 14.109375 22.625 23.890625 
Q 32.328125 33.6875 34.8125 36.53125 
Q 39.546875 41.84375 41.421875 45.53125 
Q 43.3125 49.21875 43.3125 52.78125 
Q 43.3125 58.59375 39.234375 62.25 
Q 35.15625 65.921875 28.609375 65.921875 
Q 23.96875 65.921875 18.8125 64.3125 
Q 13.671875 62.703125 7.8125 59.421875 
L 7.8125 69.390625 
Q 13.765625 71.78125 18.9375 73 
Q 24.125 74.21875 28.421875 74.21875 
Q 39.75 74.21875 46.484375 68.546875 
Q 53.21875 62.890625 53.21875 53.421875 
Q 53.21875 48.921875 51.53125 44.890625 
Q 49.859375 40.875 45.40625 35.40625 
Q 44.1875 33.984375 37.640625 27.21875 
Q 31.109375 20.453125 19.1875 8.296875 
" id="BitstreamVeraSans-Roman-32"/>
      </defs>
      <g transform="translate(131.415048902 115.665929687)scale(0.12 -0.12)">
       <use xlink:href="#BitstreamVeraSans-Roman-30"/>
       <use x="63.623046875" xlink:href="#BitstreamVeraSans-Roman-2e"/>
       <use x="95.41015625" xlink:href="#BitstreamVeraSans-Roman-32"/>
      </g>
     </g>
    </g>
    <g id="xtick_3">
     <g id="line2d_6">
      <g>
       <use style="stroke:#000000;stroke-width:0.5;" x="208.066357614" xlink:href="#me59cd8c9ca" y="102.547804687"/>
      </g>
     </g>
     <g id="line2d_7">
      <g>
       <use style="stroke:#000000;stroke-width:0.5;" x="208.066357614" xlink:href="#ma271c4e3b0" y="32.2451082292"/>
      </g>
     </g>
     <g id="text_3">
      <!-- 0.4 -->
      <defs>
       <path d="M 37.796875 64.3125 
L 12.890625 25.390625 
L 37.796875 25.390625 
z
M 35.203125 72.90625 
L 47.609375 72.90625 
L 47.609375 25.390625 
L 58.015625 25.390625 
L 58.015625 17.1875 
L 47.609375 17.1875 
L 47.609375 0 
L 37.796875 0 
L 37.796875 17.1875 
L 4.890625 17.1875 
L 4.890625 26.703125 
z
" id="BitstreamVeraSans-Roman-34"/>
      </defs>
      <g transform="translate(198.524482614 115.665929687)scale(0.12 -0.12)">
       <use xlink:href="#BitstreamVeraSans-Roman-30"/>
       <use x="63.623046875" xlink:href="#BitstreamVeraSans-Roman-2e"/>
       <use x="95.41015625" xlink:href="#BitstreamVeraSans-Roman-34"/>
      </g>
     </g>
    </g>
    <g id="xtick_4">
     <g id="line2d_8">
      <g>
       <use style="stroke:#000000;stroke-width:0.5;" x="275.175791327" xlink:href="#me59cd8c9ca" y="102.547804687"/>
      </g>
     </g>
     <g id="line2d_9">
      <g>
       <use style="stroke:#000000;stroke-width:0.5;" x="275.175791327" xlink:href="#ma271c4e3b0" y="32.2451082292"/>
      </g>
     </g>
     <g id="text_4">
      <!-- 0.6 -->
      <defs>
       <path d="M 33.015625 40.375 
Q 26.375 40.375 22.484375 35.828125 
Q 18.609375 31.296875 18.609375 23.390625 
Q 18.609375 15.53125 22.484375 10.953125 
Q 26.375 6.390625 33.015625 6.390625 
Q 39.65625 6.390625 43.53125 10.953125 
Q 47.40625 15.53125 47.40625 23.390625 
Q 47.40625 31.296875 43.53125 35.828125 
Q 39.65625 40.375 33.015625 40.375 
M 52.59375 71.296875 
L 52.59375 62.3125 
Q 48.875 64.0625 45.09375 64.984375 
Q 41.3125 65.921875 37.59375 65.921875 
Q 27.828125 65.921875 22.671875 59.328125 
Q 17.53125 52.734375 16.796875 39.40625 
Q 19.671875 43.65625 24.015625 45.921875 
Q 28.375 48.1875 33.59375 48.1875 
Q 44.578125 48.1875 50.953125 41.515625 
Q 57.328125 34.859375 57.328125 23.390625 
Q 57.328125 12.15625 50.6875 5.359375 
Q 44.046875 -1.421875 33.015625 -1.421875 
Q 20.359375 -1.421875 13.671875 8.265625 
Q 6.984375 17.96875 6.984375 36.375 
Q 6.984375 53.65625 15.1875 63.9375 
Q 23.390625 74.21875 37.203125 74.21875 
Q 40.921875 74.21875 44.703125 73.484375 
Q 48.484375 72.75 52.59375 71.296875 
" id="BitstreamVeraSans-Roman-36"/>
      </defs>
      <g transform="translate(265.633916327 115.665929687)scale(0.12 -0.12)">
       <use xlink:href="#BitstreamVeraSans-Roman-30"/>
       <use x="63.623046875" xlink:href="#BitstreamVeraSans-Roman-2e"/>
       <use x="95.41015625" xlink:href="#BitstreamVeraSans-Roman-36"/>
      </g>
     </g>
    </g>
    <g id="xtick_5">
     <g id="line2d_10">
      <g>
       <use style="stroke:#000000;stroke-width:0.5;" x="342.285225039" xlink:href="#me59cd8c9ca" y="102.547804687"/>
      </g>
     </g>
     <g id="line2d_11">
      <g>
       <use style="stroke:#000000;stroke-width:0.5;" x="342.285225039" xlink:href="#ma271c4e3b0" y="32.2451082292"/>
      </g>
     </g>
     <g id="text_5">
      <!-- 0.8 -->
      <defs>
       <path d="M 31.78125 34.625 
Q 24.75 34.625 20.71875 30.859375 
Q 16.703125 27.09375 16.703125 20.515625 
Q 16.703125 13.921875 20.71875 10.15625 
Q 24.75 6.390625 31.78125 6.390625 
Q 38.8125 6.390625 42.859375 10.171875 
Q 46.921875 13.96875 46.921875 20.515625 
Q 46.921875 27.09375 42.890625 30.859375 
Q 38.875 34.625 31.78125 34.625 
M 21.921875 38.8125 
Q 15.578125 40.375 12.03125 44.71875 
Q 8.5 49.078125 8.5 55.328125 
Q 8.5 64.0625 14.71875 69.140625 
Q 20.953125 74.21875 31.78125 74.21875 
Q 42.671875 74.21875 48.875 69.140625 
Q 55.078125 64.0625 55.078125 55.328125 
Q 55.078125 49.078125 51.53125 44.71875 
Q 48 40.375 41.703125 38.8125 
Q 48.828125 37.15625 52.796875 32.3125 
Q 56.78125 27.484375 56.78125 20.515625 
Q 56.78125 9.90625 50.3125 4.234375 
Q 43.84375 -1.421875 31.78125 -1.421875 
Q 19.734375 -1.421875 13.25 4.234375 
Q 6.78125 9.90625 6.78125 20.515625 
Q 6.78125 27.484375 10.78125 32.3125 
Q 14.796875 37.15625 21.921875 38.8125 
M 18.3125 54.390625 
Q 18.3125 48.734375 21.84375 45.5625 
Q 25.390625 42.390625 31.78125 42.390625 
Q 38.140625 42.390625 41.71875 45.5625 
Q 45.3125 48.734375 45.3125 54.390625 
Q 45.3125 60.0625 41.71875 63.234375 
Q 38.140625 66.40625 31.78125 66.40625 
Q 25.390625 66.40625 21.84375 63.234375 
Q 18.3125 60.0625 18.3125 54.390625 
" id="BitstreamVeraSans-Roman-38"/>
      </defs>
      <g transform="translate(332.743350039 115.665929687)scale(0.12 -0.12)">
       <use xlink:href="#BitstreamVeraSans-Roman-30"/>
       <use x="63.623046875" xlink:href="#BitstreamVeraSans-Roman-2e"/>
       <use x="95.41015625" xlink:href="#BitstreamVeraSans-Roman-38"/>
      </g>
     </g>
    </g>
    <g id="xtick_6">
     <g id="line2d_12">
      <g>
       <use style="stroke:#000000;stroke-width:0.5;" x="409.394658751" xlink:href="#me59cd8c9ca" y="102.547804687"/>
      </g>
     </g>
     <g id="line2d_13">
      <g>
       <use style="stroke:#000000;stroke-width:0.5;" x="409.394658751" xlink:href="#ma271c4e3b0" y="32.2451082292"/>
      </g>
     </g>
     <g id="text_6">
      <!-- 1.0 -->
      <defs>
       <path d="M 12.40625 8.296875 
L 28.515625 8.296875 
L 28.515625 63.921875 
L 10.984375 60.40625 
L 10.984375 69.390625 
L 28.421875 72.90625 
L 38.28125 72.90625 
L 38.28125 8.296875 
L 54.390625 8.296875 
L 54.390625 0 
L 12.40625 0 
z
" id="BitstreamVeraSans-Roman-31"/>
      </defs>
      <g transform="translate(399.852783751 115.665929687)scale(0.12 -0.12)">
       <use xlink:href="#BitstreamVeraSans-Roman-31"/>
       <use x="63.623046875" xlink:href="#BitstreamVeraSans-Roman-2e"/>
       <use x="95.41015625" xlink:href="#BitstreamVeraSans-Roman-30"/>
      </g>
     </g>
    </g>
    <g id="text_7">
     <!-- $x(t), \; m$ -->
     <defs>
      <path d="M 6.203125 8.109375 
Q 6.203125 9.578125 6.5 10.890625 
L 13.71875 39.59375 
L 3.21875 39.59375 
Q 2.203125 39.59375 2.203125 40.921875 
Q 2.59375 43.109375 3.515625 43.109375 
L 14.59375 43.109375 
L 18.609375 59.421875 
Q 19 60.75 20.171875 61.671875 
Q 21.34375 62.59375 22.796875 62.59375 
Q 24.078125 62.59375 24.921875 61.828125 
Q 25.78125 61.078125 25.78125 59.8125 
Q 25.78125 59.515625 25.75 59.34375 
Q 25.734375 59.1875 25.6875 58.984375 
L 21.6875 43.109375 
L 31.984375 43.109375 
Q 33.015625 43.109375 33.015625 41.796875 
Q 32.953125 41.546875 32.8125 40.953125 
Q 32.671875 40.375 32.421875 39.984375 
Q 32.171875 39.59375 31.6875 39.59375 
L 20.796875 39.59375 
L 13.625 10.6875 
Q 12.890625 7.859375 12.890625 5.8125 
Q 12.890625 1.515625 15.828125 1.515625 
Q 20.21875 1.515625 23.609375 5.640625 
Q 27 9.765625 28.8125 14.703125 
Q 29.203125 15.28125 29.59375 15.28125 
L 30.8125 15.28125 
Q 31.203125 15.28125 31.4375 15.015625 
Q 31.6875 14.75 31.6875 14.40625 
Q 31.6875 14.203125 31.59375 14.109375 
Q 29.390625 8.0625 25.1875 3.46875 
Q 21 -1.125 15.578125 -1.125 
Q 11.625 -1.125 8.90625 1.453125 
Q 6.203125 4.046875 6.203125 8.109375 
" id="Cmmi10-74"/>
      <path d="M 7.8125 2.875 
Q 9.578125 1.515625 12.796875 1.515625 
Q 15.921875 1.515625 18.3125 4.515625 
Q 20.703125 7.515625 21.578125 11.078125 
L 26.125 28.8125 
Q 27.203125 33.640625 27.203125 35.40625 
Q 27.203125 37.890625 25.8125 39.75 
Q 24.421875 41.609375 21.921875 41.609375 
Q 18.75 41.609375 15.96875 39.625 
Q 13.1875 37.640625 11.28125 34.59375 
Q 9.375 31.546875 8.59375 28.421875 
Q 8.40625 27.78125 7.8125 27.78125 
L 6.59375 27.78125 
Q 5.8125 27.78125 5.8125 28.71875 
L 5.8125 29 
Q 6.78125 32.71875 9.125 36.25 
Q 11.46875 39.796875 14.859375 41.984375 
Q 18.265625 44.1875 22.125 44.1875 
Q 25.78125 44.1875 28.734375 42.234375 
Q 31.6875 40.28125 32.90625 36.921875 
Q 34.625 39.984375 37.28125 42.078125 
Q 39.9375 44.1875 43.109375 44.1875 
Q 45.265625 44.1875 47.5 43.421875 
Q 49.75 42.671875 51.171875 41.109375 
Q 52.59375 39.546875 52.59375 37.203125 
Q 52.59375 34.671875 50.953125 32.828125 
Q 49.3125 31 46.78125 31 
Q 45.171875 31 44.09375 32.03125 
Q 43.015625 33.0625 43.015625 34.625 
Q 43.015625 36.71875 44.453125 38.296875 
Q 45.90625 39.890625 47.90625 40.1875 
Q 46.09375 41.609375 42.921875 41.609375 
Q 39.703125 41.609375 37.328125 38.625 
Q 34.96875 35.640625 33.984375 31.984375 
L 29.59375 14.3125 
Q 28.515625 10.296875 28.515625 7.71875 
Q 28.515625 5.171875 29.953125 3.34375 
Q 31.390625 1.515625 33.796875 1.515625 
Q 38.484375 1.515625 42.15625 5.640625 
Q 45.84375 9.765625 47.015625 14.703125 
Q 47.21875 15.28125 47.796875 15.28125 
L 49.03125 15.28125 
Q 49.421875 15.28125 49.65625 15.015625 
Q 49.90625 14.75 49.90625 14.40625 
Q 49.90625 14.3125 49.8125 14.109375 
Q 48.390625 8.15625 43.84375 3.515625 
Q 39.3125 -1.125 33.59375 -1.125 
Q 29.9375 -1.125 26.984375 0.84375 
Q 24.03125 2.828125 22.796875 6.203125 
Q 21.234375 3.265625 18.46875 1.0625 
Q 15.71875 -1.125 12.59375 -1.125 
Q 10.453125 -1.125 8.171875 -0.359375 
Q 5.90625 0.390625 4.484375 1.953125 
Q 3.078125 3.515625 3.078125 5.90625 
Q 3.078125 8.25 4.703125 10.171875 
Q 6.34375 12.109375 8.796875 12.109375 
Q 10.453125 12.109375 11.578125 11.109375 
Q 12.703125 10.109375 12.703125 8.5 
Q 12.703125 6.390625 11.296875 4.828125 
Q 9.90625 3.265625 7.8125 2.875 
" id="Cmmi10-78"/>
      <path d="M 9.90625 -18.015625 
Q 9.90625 -17.578125 10.296875 -17.1875 
Q 13.921875 -13.71875 15.921875 -9.171875 
Q 17.921875 -4.640625 17.921875 0.390625 
L 17.921875 1.609375 
Q 16.3125 0 13.921875 0 
Q 11.625 0 10.015625 1.609375 
Q 8.40625 3.21875 8.40625 5.515625 
Q 8.40625 7.859375 10.015625 9.421875 
Q 11.625 10.984375 13.921875 10.984375 
Q 17.484375 10.984375 19 7.6875 
Q 20.515625 4.390625 20.515625 0.390625 
Q 20.515625 -5.171875 18.28125 -10.171875 
Q 16.0625 -15.1875 12.015625 -19.1875 
Q 11.625 -19.390625 11.375 -19.390625 
Q 10.890625 -19.390625 10.390625 -18.9375 
Q 9.90625 -18.5 9.90625 -18.015625 
" id="Cmmi10-3b"/>
      <path d="M 7.71875 1.703125 
Q 7.71875 2.296875 7.8125 2.59375 
L 15.28125 32.421875 
Q 16.015625 35.203125 16.015625 37.3125 
Q 16.015625 41.609375 13.09375 41.609375 
Q 9.96875 41.609375 8.453125 37.859375 
Q 6.9375 34.125 5.515625 28.421875 
Q 5.515625 28.125 5.21875 27.953125 
Q 4.9375 27.78125 4.6875 27.78125 
L 3.515625 27.78125 
Q 3.171875 27.78125 2.921875 28.140625 
Q 2.6875 28.515625 2.6875 28.8125 
Q 3.765625 33.15625 4.765625 36.171875 
Q 5.765625 39.203125 7.890625 41.6875 
Q 10.015625 44.1875 13.1875 44.1875 
Q 16.9375 44.1875 19.8125 41.8125 
Q 22.703125 39.453125 22.703125 35.796875 
Q 25.6875 39.703125 29.6875 41.9375 
Q 33.6875 44.1875 38.1875 44.1875 
Q 42.921875 44.1875 46.359375 41.765625 
Q 49.8125 39.359375 49.8125 34.90625 
Q 52.875 39.265625 57 41.71875 
Q 61.140625 44.1875 66.015625 44.1875 
Q 71.1875 44.1875 74.328125 41.375 
Q 77.484375 38.578125 77.484375 33.40625 
Q 77.484375 29.296875 75.65625 23.484375 
Q 73.828125 17.671875 71.09375 10.5 
Q 69.671875 7.03125 69.671875 4.5 
Q 69.671875 1.515625 72.015625 1.515625 
Q 75.921875 1.515625 78.515625 5.703125 
Q 81.109375 9.90625 82.171875 14.703125 
Q 82.46875 15.28125 83.015625 15.28125 
L 84.1875 15.28125 
Q 84.578125 15.28125 84.84375 15.015625 
Q 85.109375 14.75 85.109375 14.40625 
Q 85.109375 14.3125 85.015625 14.109375 
Q 83.640625 8.453125 80.25 3.65625 
Q 76.859375 -1.125 71.78125 -1.125 
Q 68.265625 -1.125 65.765625 1.296875 
Q 63.28125 3.71875 63.28125 7.171875 
Q 63.28125 8.9375 64.109375 11.078125 
Q 66.9375 18.609375 68.8125 24.515625 
Q 70.703125 30.421875 70.703125 34.90625 
Q 70.703125 37.703125 69.578125 39.65625 
Q 68.453125 41.609375 65.828125 41.609375 
Q 60.359375 41.609375 56.34375 38.25 
Q 52.34375 34.90625 49.421875 29.390625 
Q 49.21875 28.421875 49.125 27.875 
L 42.671875 2.203125 
Q 42.328125 0.828125 41.125 -0.140625 
Q 39.9375 -1.125 38.484375 -1.125 
Q 37.3125 -1.125 36.40625 -0.34375 
Q 35.5 0.4375 35.5 1.703125 
Q 35.5 2.296875 35.59375 2.59375 
L 42 28.078125 
Q 43.015625 32.171875 43.015625 34.90625 
Q 43.015625 37.703125 41.859375 39.65625 
Q 40.71875 41.609375 37.984375 41.609375 
Q 34.328125 41.609375 31.25 39.984375 
Q 28.171875 38.375 25.875 35.71875 
Q 23.578125 33.0625 21.6875 29.390625 
L 14.890625 2.203125 
Q 14.546875 0.828125 13.34375 -0.140625 
Q 12.15625 -1.125 10.6875 -1.125 
Q 9.46875 -1.125 8.59375 -0.34375 
Q 7.71875 0.4375 7.71875 1.703125 
" id="Cmmi10-6d"/>
      <path d="M 31 -24.8125 
Q 25.4375 -20.40625 21.40625 -14.71875 
Q 17.390625 -9.03125 14.8125 -2.578125 
Q 12.25 3.859375 10.984375 10.890625 
Q 9.71875 17.921875 9.71875 25 
Q 9.71875 32.171875 10.984375 39.203125 
Q 12.25 46.234375 14.859375 52.734375 
Q 17.484375 59.234375 21.53125 64.890625 
Q 25.59375 70.5625 31 74.8125 
Q 31 75 31.5 75 
L 32.421875 75 
Q 32.71875 75 32.953125 74.734375 
Q 33.203125 74.46875 33.203125 74.125 
Q 33.203125 73.6875 33.015625 73.484375 
Q 28.125 68.703125 24.875 63.234375 
Q 21.625 57.765625 19.640625 51.578125 
Q 17.671875 45.40625 16.796875 38.78125 
Q 15.921875 32.171875 15.921875 25 
Q 15.921875 -6.78125 32.90625 -23.296875 
Q 33.203125 -23.578125 33.203125 -24.125 
Q 33.203125 -24.359375 32.9375 -24.671875 
Q 32.671875 -25 32.421875 -25 
L 31.5 -25 
Q 31 -25 31 -24.8125 
" id="Cmr10-28"/>
      <path d="M 6.5 -25 
Q 5.609375 -25 5.609375 -24.125 
Q 5.609375 -23.6875 5.8125 -23.484375 
Q 22.90625 -6.78125 22.90625 25 
Q 22.90625 56.78125 6 73.296875 
Q 5.609375 73.53125 5.609375 74.125 
Q 5.609375 74.46875 5.875 74.734375 
Q 6.15625 75 6.5 75 
L 7.421875 75 
Q 7.71875 75 7.90625 74.8125 
Q 15.09375 69.140625 19.875 61.03125 
Q 24.65625 52.9375 26.875 43.75 
Q 29.109375 34.578125 29.109375 25 
Q 29.109375 17.921875 27.90625 11.0625 
Q 26.703125 4.203125 24.09375 -2.453125 
Q 21.484375 -9.125 17.484375 -14.765625 
Q 13.484375 -20.40625 7.90625 -24.8125 
Q 7.71875 -25 7.421875 -25 
z
" id="Cmr10-29"/>
     </defs>
     <g transform="translate(219.966619937 132.161554687)scale(0.12 -0.12)">
      <use xlink:href="#Cmmi10-78"/>
      <use transform="translate(57.080078125 0.0)" xlink:href="#Cmr10-28"/>
      <use transform="translate(95.8984375 0.0)" xlink:href="#Cmmi10-74"/>
      <use transform="translate(131.982421875 0.0)" xlink:href="#Cmr10-29"/>
      <use transform="translate(170.80078125 0.0)" xlink:href="#Cmmi10-3b"/>
      <use transform="translate(240.432052734375 0.0)" xlink:href="#Cmmi10-6d"/>
     </g>
    </g>
    <g id="text_8">
     <!-- 1e−4 -->
     <defs>
      <path d="M 10.59375 35.5 
L 73.1875 35.5 
L 73.1875 27.203125 
L 10.59375 27.203125 
z
" id="BitstreamVeraSans-Roman-2212"/>
      <path d="M 56.203125 29.59375 
L 56.203125 25.203125 
L 14.890625 25.203125 
Q 15.484375 15.921875 20.484375 11.0625 
Q 25.484375 6.203125 34.421875 6.203125 
Q 39.59375 6.203125 44.453125 7.46875 
Q 49.3125 8.734375 54.109375 11.28125 
L 54.109375 2.78125 
Q 49.265625 0.734375 44.1875 -0.34375 
Q 39.109375 -1.421875 33.890625 -1.421875 
Q 20.796875 -1.421875 13.15625 6.1875 
Q 5.515625 13.8125 5.515625 26.8125 
Q 5.515625 40.234375 12.765625 48.109375 
Q 20.015625 56 32.328125 56 
Q 43.359375 56 49.78125 48.890625 
Q 56.203125 41.796875 56.203125 29.59375 
M 47.21875 32.234375 
Q 47.125 39.59375 43.09375 43.984375 
Q 39.0625 48.390625 32.421875 48.390625 
Q 24.90625 48.390625 20.390625 44.140625 
Q 15.875 39.890625 15.1875 32.171875 
z
" id="BitstreamVeraSans-Roman-65"/>
     </defs>
     <g transform="translate(379.490739874 130.279679687)scale(0.12 -0.12)">
      <use xlink:href="#BitstreamVeraSans-Roman-31"/>
      <use x="63.623046875" xlink:href="#BitstreamVeraSans-Roman-65"/>
      <use x="125.146484375" xlink:href="#BitstreamVeraSans-Roman-2212"/>
      <use x="208.935546875" xlink:href="#BitstreamVeraSans-Roman-34"/>
     </g>
    </g>
   </g>
   <g id="matplotlib.axis_2">
    <g id="ytick_1">
     <g id="line2d_14">
      <defs>
       <path d="M 0 0 
L 4 0 
" id="mea1d9ac31d" style="stroke:#000000;stroke-width:0.5;"/>
      </defs>
      <g>
       <use style="stroke:#000000;stroke-width:0.5;" x="67.213125" xlink:href="#mea1d9ac31d" y="96.6892466493"/>
      </g>
     </g>
     <g id="line2d_15">
      <defs>
       <path d="M 0 0 
L -4 0 
" id="m9e64da8b28" style="stroke:#000000;stroke-width:0.5;"/>
      </defs>
      <g>
       <use style="stroke:#000000;stroke-width:0.5;" x="412.200114874" xlink:href="#m9e64da8b28" y="96.6892466493"/>
      </g>
     </g>
     <g id="text_9">
      <!-- 0 -->
      <g transform="translate(55.578125 100.000496649)scale(0.12 -0.12)">
       <use xlink:href="#BitstreamVeraSans-Roman-30"/>
      </g>
     </g>
    </g>
    <g id="ytick_2">
     <g id="line2d_16">
      <g>
       <use style="stroke:#000000;stroke-width:0.5;" x="67.213125" xlink:href="#mea1d9ac31d" y="81.233322659"/>
      </g>
     </g>
     <g id="line2d_17">
      <g>
       <use style="stroke:#000000;stroke-width:0.5;" x="412.200114874" xlink:href="#m9e64da8b28" y="81.233322659"/>
      </g>
     </g>
     <g id="text_10">
      <!-- 1 -->
      <g transform="translate(55.578125 84.544572659)scale(0.12 -0.12)">
       <use xlink:href="#BitstreamVeraSans-Roman-31"/>
      </g>
     </g>
    </g>
    <g id="ytick_3">
     <g id="line2d_18">
      <g>
       <use style="stroke:#000000;stroke-width:0.5;" x="67.213125" xlink:href="#mea1d9ac31d" y="65.7773986687"/>
      </g>
     </g>
     <g id="line2d_19">
      <g>
       <use style="stroke:#000000;stroke-width:0.5;" x="412.200114874" xlink:href="#m9e64da8b28" y="65.7773986687"/>
      </g>
     </g>
     <g id="text_11">
      <!-- 2 -->
      <g transform="translate(55.578125 69.0886486687)scale(0.12 -0.12)">
       <use xlink:href="#BitstreamVeraSans-Roman-32"/>
      </g>
     </g>
    </g>
    <g id="ytick_4">
     <g id="line2d_20">
      <g>
       <use style="stroke:#000000;stroke-width:0.5;" x="67.213125" xlink:href="#mea1d9ac31d" y="50.3214746784"/>
      </g>
     </g>
     <g id="line2d_21">
      <g>
       <use style="stroke:#000000;stroke-width:0.5;" x="412.200114874" xlink:href="#m9e64da8b28" y="50.3214746784"/>
      </g>
     </g>
     <g id="text_12">
      <!-- 3 -->
      <defs>
       <path d="M 40.578125 39.3125 
Q 47.65625 37.796875 51.625 33 
Q 55.609375 28.21875 55.609375 21.1875 
Q 55.609375 10.40625 48.1875 4.484375 
Q 40.765625 -1.421875 27.09375 -1.421875 
Q 22.515625 -1.421875 17.65625 -0.515625 
Q 12.796875 0.390625 7.625 2.203125 
L 7.625 11.71875 
Q 11.71875 9.328125 16.59375 8.109375 
Q 21.484375 6.890625 26.8125 6.890625 
Q 36.078125 6.890625 40.9375 10.546875 
Q 45.796875 14.203125 45.796875 21.1875 
Q 45.796875 27.640625 41.28125 31.265625 
Q 36.765625 34.90625 28.71875 34.90625 
L 20.21875 34.90625 
L 20.21875 43.015625 
L 29.109375 43.015625 
Q 36.375 43.015625 40.234375 45.921875 
Q 44.09375 48.828125 44.09375 54.296875 
Q 44.09375 59.90625 40.109375 62.90625 
Q 36.140625 65.921875 28.71875 65.921875 
Q 24.65625 65.921875 20.015625 65.03125 
Q 15.375 64.15625 9.8125 62.3125 
L 9.8125 71.09375 
Q 15.4375 72.65625 20.34375 73.4375 
Q 25.25 74.21875 29.59375 74.21875 
Q 40.828125 74.21875 47.359375 69.109375 
Q 53.90625 64.015625 53.90625 55.328125 
Q 53.90625 49.265625 50.4375 45.09375 
Q 46.96875 40.921875 40.578125 39.3125 
" id="BitstreamVeraSans-Roman-33"/>
      </defs>
      <g transform="translate(55.578125 53.6327246784)scale(0.12 -0.12)">
       <use xlink:href="#BitstreamVeraSans-Roman-33"/>
      </g>
     </g>
    </g>
    <g id="ytick_5">
     <g id="line2d_22">
      <g>
       <use style="stroke:#000000;stroke-width:0.5;" x="67.213125" xlink:href="#mea1d9ac31d" y="34.8655506881"/>
      </g>
     </g>
     <g id="line2d_23">
      <g>
       <use style="stroke:#000000;stroke-width:0.5;" x="412.200114874" xlink:href="#m9e64da8b28" y="34.8655506881"/>
      </g>
     </g>
     <g id="text_13">
      <!-- 4 -->
      <g transform="translate(55.578125 38.1768006881)scale(0.12 -0.12)">
       <use xlink:href="#BitstreamVeraSans-Roman-34"/>
      </g>
     </g>
    </g>
    <g id="text_14">
     <!-- $y(t), \; m$ -->
     <defs>
      <path d="M 8.40625 -14.3125 
Q 10.5 -17.921875 15.71875 -17.921875 
Q 20.453125 -17.921875 23.921875 -14.59375 
Q 27.390625 -11.28125 29.515625 -6.5625 
Q 31.640625 -1.859375 32.8125 3.078125 
Q 28.375 -1.125 23.1875 -1.125 
Q 19.234375 -1.125 16.453125 0.234375 
Q 13.671875 1.609375 12.125 4.3125 
Q 10.59375 7.03125 10.59375 10.890625 
Q 10.59375 14.15625 11.46875 17.59375 
Q 12.359375 21.046875 13.9375 25.265625 
Q 15.53125 29.5 16.703125 32.625 
Q 18.015625 36.28125 18.015625 38.625 
Q 18.015625 41.609375 15.828125 41.609375 
Q 11.859375 41.609375 9.296875 37.53125 
Q 6.734375 33.453125 5.515625 28.421875 
Q 5.328125 27.78125 4.6875 27.78125 
L 3.515625 27.78125 
Q 2.6875 27.78125 2.6875 28.71875 
L 2.6875 29 
Q 4.296875 34.96875 7.609375 39.578125 
Q 10.9375 44.1875 16.015625 44.1875 
Q 19.578125 44.1875 22.046875 41.84375 
Q 24.515625 39.5 24.515625 35.890625 
Q 24.515625 34.03125 23.6875 31.984375 
Q 23.25 30.765625 21.6875 26.65625 
Q 20.125 22.5625 19.28125 19.875 
Q 18.453125 17.1875 17.921875 14.59375 
Q 17.390625 12.015625 17.390625 9.421875 
Q 17.390625 6.109375 18.796875 3.8125 
Q 20.21875 1.515625 23.296875 1.515625 
Q 29.5 1.515625 34.421875 9.078125 
L 42 39.890625 
Q 42.328125 41.21875 43.546875 42.15625 
Q 44.78125 43.109375 46.1875 43.109375 
Q 47.40625 43.109375 48.3125 42.328125 
Q 49.21875 41.546875 49.21875 40.28125 
Q 49.21875 39.703125 49.125 39.5 
L 39.203125 -0.296875 
Q 37.890625 -5.421875 34.375 -10.109375 
Q 30.859375 -14.796875 25.90625 -17.65625 
Q 20.953125 -20.515625 15.578125 -20.515625 
Q 12.984375 -20.515625 10.4375 -19.5 
Q 7.90625 -18.5 6.34375 -16.5 
Q 4.78125 -14.5 4.78125 -11.8125 
Q 4.78125 -9.078125 6.390625 -7.078125 
Q 8.015625 -5.078125 10.6875 -5.078125 
Q 12.3125 -5.078125 13.40625 -6.078125 
Q 14.5 -7.078125 14.5 -8.6875 
Q 14.5 -10.984375 12.78125 -12.6875 
Q 11.078125 -14.40625 8.796875 -14.40625 
Q 8.6875 -14.359375 8.59375 -14.328125 
Q 8.5 -14.3125 8.40625 -14.3125 
" id="Cmmi10-79"/>
     </defs>
     <g transform="translate(47.578125 86.6564564583)rotate(-90.0)scale(0.12 -0.12)">
      <use xlink:href="#Cmmi10-79"/>
      <use transform="translate(49.0234375 0.0)" xlink:href="#Cmr10-28"/>
      <use transform="translate(87.841796875 0.0)" xlink:href="#Cmmi10-74"/>
      <use transform="translate(123.92578125 0.0)" xlink:href="#Cmr10-29"/>
      <use transform="translate(162.744140625 0.0)" xlink:href="#Cmmi10-3b"/>
      <use transform="translate(232.375412109375 0.0)" xlink:href="#Cmmi10-6d"/>
     </g>
    </g>
    <g id="text_15">
     <!-- 1e−6 -->
     <g transform="translate(67.213125 29.2451082292)scale(0.12 -0.12)">
      <use xlink:href="#BitstreamVeraSans-Roman-31"/>
      <use x="63.623046875" xlink:href="#BitstreamVeraSans-Roman-65"/>
      <use x="125.146484375" xlink:href="#BitstreamVeraSans-Roman-2212"/>
      <use x="208.935546875" xlink:href="#BitstreamVeraSans-Roman-36"/>
     </g>
    </g>
   </g>
   <g id="text_16">
    <!-- $t \in [ 0s; 1\cdot 10^{-09}s ], \; u_x = 0\frac{m}{s}$ -->
    <defs>
     <path d="M 9.90625 -18.015625 
Q 9.90625 -17.578125 10.109375 -17.390625 
Q 17.09375 -9.8125 17.09375 0.390625 
L 17.09375 0.875 
Q 15.625 0 13.921875 0 
Q 11.625 0 10.015625 1.609375 
Q 8.40625 3.21875 8.40625 5.515625 
Q 8.40625 7.859375 10.015625 9.421875 
Q 11.625 10.984375 13.921875 10.984375 
Q 17.390625 10.984375 18.53125 7.78125 
Q 19.671875 4.59375 19.671875 0.390625 
Q 19.671875 -3.125 18.8125 -6.546875 
Q 17.96875 -9.96875 16.234375 -13.234375 
Q 14.5 -16.5 12.109375 -19.09375 
Q 11.8125 -19.390625 11.375 -19.390625 
Q 10.890625 -19.390625 10.390625 -18.9375 
Q 9.90625 -18.5 9.90625 -18.015625 
M 8.40625 37.59375 
Q 8.40625 39.015625 9.125 40.28125 
Q 9.859375 41.546875 11.15625 42.328125 
Q 12.453125 43.109375 13.921875 43.109375 
Q 15.328125 43.109375 16.625 42.328125 
Q 17.921875 41.546875 18.65625 40.28125 
Q 19.390625 39.015625 19.390625 37.59375 
Q 19.390625 35.359375 17.796875 33.71875 
Q 16.21875 32.078125 13.921875 32.078125 
Q 11.671875 32.078125 10.03125 33.71875 
Q 8.40625 35.359375 8.40625 37.59375 
" id="Cmr10-3b"/>
     <path d="M 11.28125 4.203125 
Q 14.015625 0.984375 20.796875 0.984375 
Q 24.609375 0.984375 27.90625 3.5625 
Q 31.203125 6.15625 33.015625 9.90625 
Q 35.109375 14.15625 35.6875 18.96875 
Q 36.28125 23.78125 36.28125 30.90625 
Q 34.578125 26.859375 31.375 24.265625 
Q 28.171875 21.6875 24.03125 21.6875 
Q 18.21875 21.6875 13.640625 24.828125 
Q 9.078125 27.984375 6.640625 33.125 
Q 4.203125 38.28125 4.203125 44.09375 
Q 4.203125 50.09375 6.9375 55.296875 
Q 9.671875 60.5 14.5 63.546875 
Q 19.34375 66.609375 25.484375 66.609375 
Q 31.546875 66.609375 35.625 63.3125 
Q 39.703125 60.015625 41.84375 54.8125 
Q 44 49.609375 44.84375 43.796875 
Q 45.703125 37.984375 45.703125 32.328125 
Q 45.703125 24.609375 42.875 16.578125 
Q 40.046875 8.546875 34.40625 3.171875 
Q 28.765625 -2.203125 20.796875 -2.203125 
Q 14.890625 -2.203125 10.78125 0.578125 
Q 6.6875 3.375 6.6875 8.984375 
Q 6.6875 11.03125 8.078125 12.421875 
Q 9.46875 13.8125 11.53125 13.8125 
Q 13.53125 13.8125 14.921875 12.421875 
Q 16.3125 11.03125 16.3125 8.984375 
Q 16.3125 7.03125 14.890625 5.609375 
Q 13.484375 4.203125 11.53125 4.203125 
z
M 24.421875 24.3125 
Q 28.515625 24.3125 31.125 27.0625 
Q 33.734375 29.828125 34.90625 33.921875 
Q 36.078125 38.03125 36.078125 42.09375 
L 36.078125 44 
L 36.078125 44.390625 
Q 36.078125 51.90625 33.875 57.8125 
Q 31.6875 63.71875 25.484375 63.71875 
Q 21.53125 63.71875 19.0625 61.984375 
Q 16.609375 60.25 15.4375 57.375 
Q 14.265625 54.5 13.9375 51.21875 
Q 13.625 47.953125 13.625 44.09375 
Q 13.625 38.421875 14.15625 34.421875 
Q 14.703125 30.421875 17.09375 27.359375 
Q 19.484375 24.3125 24.421875 24.3125 
" id="Cmr10-39"/>
     <path d="M 21.1875 6.296875 
Q 28.71875 0 39.015625 0 
L 56.5 0 
Q 57.28125 0 57.78125 -0.578125 
Q 58.296875 -1.171875 58.296875 -2 
Q 58.296875 -2.734375 57.78125 -3.359375 
Q 57.28125 -4 56.5 -4 
L 38.71875 -4 
Q 30.765625 -4 23.734375 -0.1875 
Q 16.703125 3.609375 12.5 10.265625 
Q 8.296875 16.9375 8.296875 25 
Q 8.296875 33.0625 12.5 39.71875 
Q 16.703125 46.390625 23.734375 50.1875 
Q 30.765625 54 38.71875 54 
L 56.5 54 
Q 57.28125 54 57.78125 53.359375 
Q 58.296875 52.734375 58.296875 52 
Q 58.296875 51.171875 57.78125 50.578125 
Q 57.28125 50 56.5 50 
L 39.015625 50 
Q 34.125 50 29.515625 48.390625 
Q 24.90625 46.78125 21.1875 43.703125 
Q 17.53125 40.625 14.96875 36 
Q 12.40625 31.390625 12.40625 27 
L 56.5 27 
Q 57.28125 27 57.78125 26.359375 
Q 58.296875 25.734375 58.296875 25 
Q 58.296875 24.265625 57.78125 23.625 
Q 57.28125 23 56.5 23 
L 12.40625 23 
Q 12.40625 18.65625 14.96875 14.015625 
Q 17.53125 9.375 21.1875 6.296875 
" id="Cmsy10-32"/>
     <path d="M 8.6875 6.109375 
Q 11.375 1.515625 19.484375 1.515625 
Q 23 1.515625 26.171875 2.703125 
Q 29.34375 3.90625 31.421875 6.296875 
Q 33.5 8.6875 33.5 12.109375 
Q 33.5 14.703125 31.640625 16.359375 
Q 29.78125 18.015625 27.09375 18.609375 
L 21.6875 19.671875 
Q 17.96875 20.609375 15.578125 23.140625 
Q 13.1875 25.6875 13.1875 29.296875 
Q 13.1875 33.734375 15.59375 37.15625 
Q 18.015625 40.578125 21.96875 42.375 
Q 25.921875 44.1875 30.171875 44.1875 
Q 34.71875 44.1875 38.296875 42.015625 
Q 41.890625 39.84375 41.890625 35.59375 
Q 41.890625 33.296875 40.59375 31.53125 
Q 39.3125 29.78125 37.015625 29.78125 
Q 35.6875 29.78125 34.734375 30.640625 
Q 33.796875 31.5 33.796875 32.8125 
Q 33.796875 33.984375 34.453125 35.078125 
Q 35.109375 36.1875 36.203125 36.84375 
Q 37.3125 37.5 38.484375 37.5 
Q 37.59375 39.65625 35.171875 40.625 
Q 32.765625 41.609375 29.984375 41.609375 
Q 27.4375 41.609375 24.890625 40.578125 
Q 22.359375 39.546875 20.8125 37.5625 
Q 19.28125 35.59375 19.28125 32.90625 
Q 19.28125 31.109375 20.546875 29.734375 
Q 21.828125 28.375 23.6875 27.78125 
L 29.5 26.609375 
Q 32.28125 26.03125 34.59375 24.53125 
Q 36.921875 23.046875 38.25 20.765625 
Q 39.59375 18.5 39.59375 15.578125 
Q 39.59375 11.859375 37.515625 8.25 
Q 35.453125 4.640625 32.421875 2.484375 
Q 27.09375 -1.125 19.390625 -1.125 
Q 14.0625 -1.125 9.609375 1.3125 
Q 5.171875 3.765625 5.171875 8.59375 
Q 5.171875 11.328125 6.75 13.34375 
Q 8.34375 15.375 11.078125 15.375 
Q 12.703125 15.375 13.796875 14.390625 
Q 14.890625 13.421875 14.890625 11.8125 
Q 14.890625 9.515625 13.171875 7.8125 
Q 11.46875 6.109375 9.1875 6.109375 
z
" id="Cmmi10-73"/>
     <path d="M 10.203125 23 
Q 9.375 23 8.828125 23.625 
Q 8.296875 24.265625 8.296875 25 
Q 8.296875 25.734375 8.828125 26.359375 
Q 9.375 27 10.203125 27 
L 67.578125 27 
Q 68.359375 27 68.875 26.359375 
Q 69.390625 25.734375 69.390625 25 
Q 69.390625 24.265625 68.875 23.625 
Q 68.359375 23 67.578125 23 
z
" id="Cmsy10-a1"/>
     <path d="M 8.40625 25 
Q 8.40625 26.421875 9.125 27.6875 
Q 9.859375 28.953125 11.15625 29.734375 
Q 12.453125 30.515625 13.921875 30.515625 
Q 15.328125 30.515625 16.625 29.734375 
Q 17.921875 28.953125 18.65625 27.6875 
Q 19.390625 26.421875 19.390625 25 
Q 19.390625 22.75 17.796875 21.109375 
Q 16.21875 19.484375 13.921875 19.484375 
Q 11.671875 19.484375 10.03125 21.109375 
Q 8.40625 22.75 8.40625 25 
" id="Cmsy10-a2"/>
     <path d="M 2.203125 -25 
L 2.203125 -21 
L 11.921875 -21 
L 11.921875 71 
L 2.203125 71 
L 2.203125 75 
L 15.921875 75 
L 15.921875 -25 
z
" id="Cmr10-5d"/>
     <path d="M 10.59375 10.890625 
Q 10.59375 14.15625 11.46875 17.59375 
Q 12.359375 21.046875 13.9375 25.265625 
Q 15.53125 29.5 16.703125 32.625 
Q 18.015625 36.28125 18.015625 38.625 
Q 18.015625 41.609375 15.828125 41.609375 
Q 11.859375 41.609375 9.296875 37.53125 
Q 6.734375 33.453125 5.515625 28.421875 
Q 5.328125 27.78125 4.6875 27.78125 
L 3.515625 27.78125 
Q 2.6875 27.78125 2.6875 28.71875 
L 2.6875 29 
Q 4.296875 34.96875 7.609375 39.578125 
Q 10.9375 44.1875 16.015625 44.1875 
Q 19.578125 44.1875 22.046875 41.84375 
Q 24.515625 39.5 24.515625 35.890625 
Q 24.515625 34.03125 23.6875 31.984375 
Q 23.25 30.765625 21.6875 26.65625 
Q 20.125 22.5625 19.28125 19.875 
Q 18.453125 17.1875 17.921875 14.59375 
Q 17.390625 12.015625 17.390625 9.421875 
Q 17.390625 6.109375 18.796875 3.8125 
Q 20.21875 1.515625 23.390625 1.515625 
Q 29.78125 1.515625 34.625 9.421875 
Q 34.71875 9.8125 34.78125 10.171875 
Q 34.859375 10.546875 34.90625 10.890625 
L 42.09375 39.890625 
Q 42.4375 41.21875 43.65625 42.15625 
Q 44.875 43.109375 46.296875 43.109375 
Q 47.515625 43.109375 48.40625 42.328125 
Q 49.3125 41.546875 49.3125 40.28125 
Q 49.3125 39.703125 49.21875 39.5 
L 42 10.6875 
Q 41.3125 7.71875 41.3125 5.8125 
Q 41.3125 1.515625 44.1875 1.515625 
Q 47.40625 1.515625 49 5.484375 
Q 50.59375 9.46875 51.703125 14.703125 
Q 51.90625 15.28125 52.484375 15.28125 
L 53.71875 15.28125 
Q 54.109375 15.28125 54.34375 14.9375 
Q 54.59375 14.59375 54.59375 14.3125 
Q 53.515625 10.015625 52.515625 6.9375 
Q 51.515625 3.859375 49.359375 1.359375 
Q 47.21875 -1.125 44 -1.125 
Q 40.828125 -1.125 38.3125 0.609375 
Q 35.796875 2.34375 34.90625 5.328125 
Q 32.625 2.390625 29.59375 0.625 
Q 26.5625 -1.125 23.1875 -1.125 
Q 17.4375 -1.125 14.015625 2.015625 
Q 10.59375 5.171875 10.59375 10.890625 
" id="Cmmi10-75"/>
     <path d="M 25 -2.203125 
Q 12.75 -2.203125 8.328125 7.875 
Q 3.90625 17.96875 3.90625 31.890625 
Q 3.90625 40.578125 5.484375 48.234375 
Q 7.078125 55.90625 11.78125 61.25 
Q 16.5 66.609375 25 66.609375 
Q 31.59375 66.609375 35.78125 63.375 
Q 39.984375 60.15625 42.1875 55.046875 
Q 44.390625 49.953125 45.1875 44.109375 
Q 46 38.28125 46 31.890625 
Q 46 23.296875 44.40625 15.796875 
Q 42.828125 8.296875 38.1875 3.046875 
Q 33.546875 -2.203125 25 -2.203125 
M 25 0.390625 
Q 30.5625 0.390625 33.296875 6.09375 
Q 36.03125 11.8125 36.671875 18.75 
Q 37.3125 25.6875 37.3125 33.5 
Q 37.3125 41.015625 36.671875 47.359375 
Q 36.03125 53.71875 33.3125 58.859375 
Q 30.609375 64.015625 25 64.015625 
Q 19.34375 64.015625 16.609375 58.828125 
Q 13.875 53.65625 13.234375 47.328125 
Q 12.59375 41.015625 12.59375 33.5 
Q 12.59375 27.9375 12.859375 23 
Q 13.140625 18.0625 14.3125 12.8125 
Q 15.484375 7.5625 18.09375 3.96875 
Q 20.703125 0.390625 25 0.390625 
" id="Cmr10-30"/>
     <path d="M 11.8125 -25 
L 11.8125 75 
L 25.484375 75 
L 25.484375 71 
L 15.828125 71 
L 15.828125 -21 
L 25.484375 -21 
L 25.484375 -25 
z
" id="Cmr10-5b"/>
     <path d="M 9.28125 0 
L 9.28125 3.515625 
Q 21.78125 3.515625 21.78125 6.6875 
L 21.78125 59.1875 
Q 16.609375 56.6875 8.6875 56.6875 
L 8.6875 60.203125 
Q 20.953125 60.203125 27.203125 66.609375 
L 28.609375 66.609375 
Q 28.953125 66.609375 29.265625 66.328125 
Q 29.59375 66.0625 29.59375 65.71875 
L 29.59375 6.6875 
Q 29.59375 3.515625 42.09375 3.515625 
L 42.09375 0 
z
" id="Cmr10-31"/>
     <path d="M 7.515625 13.28125 
Q 6.6875 13.28125 6.140625 13.90625 
Q 5.609375 14.546875 5.609375 15.28125 
Q 5.609375 16.109375 6.140625 16.6875 
Q 6.6875 17.28125 7.515625 17.28125 
L 70.3125 17.28125 
Q 71.046875 17.28125 71.578125 16.6875 
Q 72.125 16.109375 72.125 15.28125 
Q 72.125 14.546875 71.578125 13.90625 
Q 71.046875 13.28125 70.3125 13.28125 
z
M 7.515625 32.71875 
Q 6.6875 32.71875 6.140625 33.296875 
Q 5.609375 33.890625 5.609375 34.71875 
Q 5.609375 35.453125 6.140625 36.078125 
Q 6.6875 36.71875 7.515625 36.71875 
L 70.3125 36.71875 
Q 71.046875 36.71875 71.578125 36.078125 
Q 72.125 35.453125 72.125 34.71875 
Q 72.125 33.890625 71.578125 33.296875 
Q 71.046875 32.71875 70.3125 32.71875 
z
" id="Cmr10-3d"/>
    </defs>
    <g transform="translate(157.626619937 27.2451082292)scale(0.144 -0.144)">
     <use transform="translate(0.0 0.109375)" xlink:href="#Cmmi10-74"/>
     <use transform="translate(53.642578125 0.109375)" xlink:href="#Cmsy10-32"/>
     <use transform="translate(137.802734375 0.109375)" xlink:href="#Cmr10-5b"/>
     <use transform="translate(165.48828125 0.109375)" xlink:href="#Cmr10-30"/>
     <use transform="translate(215.48828125 0.109375)" xlink:href="#Cmmi10-73"/>
     <use transform="translate(262.265625 0.109375)" xlink:href="#Cmr10-3b"/>
     <use transform="translate(307.509765625 0.109375)" xlink:href="#Cmr10-31"/>
     <use transform="translate(375.068359375 0.109375)" xlink:href="#Cmsy10-a2"/>
     <use transform="translate(420.3125 0.109375)" xlink:href="#Cmr10-31"/>
     <use transform="translate(470.3125 0.109375)" xlink:href="#Cmr10-30"/>
     <use transform="translate(524.776640625 38.3734375)scale(0.7)" xlink:href="#Cmsy10-a1"/>
     <use transform="translate(579.1565234375 38.3734375)scale(0.7)" xlink:href="#Cmr10-30"/>
     <use transform="translate(614.1565234375 38.3734375)scale(0.7)" xlink:href="#Cmr10-39"/>
     <use transform="translate(655.5338671874999 0.109375)" xlink:href="#Cmmi10-73"/>
     <use transform="translate(702.3112109374999 0.109375)" xlink:href="#Cmr10-5d"/>
     <use transform="translate(729.9967578124999 0.109375)" xlink:href="#Cmmi10-3b"/>
     <use transform="translate(799.628029296875 0.109375)" xlink:href="#Cmmi10-75"/>
     <use transform="translate(856.805763671875 -16.896874999999994)scale(0.7)" xlink:href="#Cmmi10-78"/>
     <use transform="translate(920.697755859375 0.109375)" xlink:href="#Cmr10-3d"/>
     <use transform="translate(1015.941896484375 0.109375)" xlink:href="#Cmr10-30"/>
     <use transform="translate(1065.9418964843749 38.396875)scale(0.7)" xlink:href="#Cmmi10-6d"/>
     <use transform="translate(1079.9418964843749 -24.571875000000006)scale(0.7)" xlink:href="#Cmmi10-73"/>
     <path d="M 1065.941896 12.609375 
L 1065.941896 18.859375 
L 1127.396975 18.859375 
L 1127.396975 12.609375 
L 1065.941896 12.609375 
z
"/>
    </g>
   </g>
  </g>
  <g id="axes_2">
   <g id="patch_7">
    <path d="M 67.213125 241.645805 
L 412.200115 241.645805 
L 412.200115 171.343108 
L 67.213125 171.343108 
z
" style="fill:#ffffff;"/>
   </g>
   <g id="line2d_24">
    <path clip-path="url(#p06db03a3f5)" d="M 73.84749 206.494456 
L 405.56575 206.494456 
L 405.56575 206.494456 
" style="fill:none;stroke:#ff8c00;stroke-linecap:square;stroke-width:2.0;"/>
   </g>
   <g id="patch_8">
    <path d="M 67.213125 171.343108 
L 412.200115 171.343108 
" style="fill:none;stroke:#000000;stroke-linecap:square;stroke-linejoin:miter;"/>
   </g>
   <g id="patch_9">
    <path d="M 67.213125 241.645805 
L 67.213125 171.343108 
" style="fill:none;stroke:#000000;stroke-linecap:square;stroke-linejoin:miter;"/>
   </g>
   <g id="patch_10">
    <path d="M 67.213125 241.645805 
L 412.200115 241.645805 
" style="fill:none;stroke:#000000;stroke-linecap:square;stroke-linejoin:miter;"/>
   </g>
   <g id="patch_11">
    <path d="M 412.200115 241.645805 
L 412.200115 171.343108 
" style="fill:none;stroke:#000000;stroke-linecap:square;stroke-linejoin:miter;"/>
   </g>
   <g id="matplotlib.axis_3">
    <g id="xtick_7">
     <g id="line2d_25">
      <g>
       <use style="stroke:#000000;stroke-width:0.5;" x="73.8474901899" xlink:href="#me59cd8c9ca" y="241.645804687"/>
      </g>
     </g>
     <g id="line2d_26">
      <g>
       <use style="stroke:#000000;stroke-width:0.5;" x="73.8474901899" xlink:href="#ma271c4e3b0" y="171.343108229"/>
      </g>
     </g>
     <g id="text_17">
      <!-- 0.0 -->
      <g transform="translate(64.3056151899 254.763929687)scale(0.12 -0.12)">
       <use xlink:href="#BitstreamVeraSans-Roman-30"/>
       <use x="63.623046875" xlink:href="#BitstreamVeraSans-Roman-2e"/>
       <use x="95.41015625" xlink:href="#BitstreamVeraSans-Roman-30"/>
      </g>
     </g>
    </g>
    <g id="xtick_8">
     <g id="line2d_27">
      <g>
       <use style="stroke:#000000;stroke-width:0.5;" x="140.191142089" xlink:href="#me59cd8c9ca" y="241.645804687"/>
      </g>
     </g>
     <g id="line2d_28">
      <g>
       <use style="stroke:#000000;stroke-width:0.5;" x="140.191142089" xlink:href="#ma271c4e3b0" y="171.343108229"/>
      </g>
     </g>
     <g id="text_18">
      <!-- 0.2 -->
      <g transform="translate(130.649267089 254.763929687)scale(0.12 -0.12)">
       <use xlink:href="#BitstreamVeraSans-Roman-30"/>
       <use x="63.623046875" xlink:href="#BitstreamVeraSans-Roman-2e"/>
       <use x="95.41015625" xlink:href="#BitstreamVeraSans-Roman-32"/>
      </g>
     </g>
    </g>
    <g id="xtick_9">
     <g id="line2d_29">
      <g>
       <use style="stroke:#000000;stroke-width:0.5;" x="206.534793988" xlink:href="#me59cd8c9ca" y="241.645804687"/>
      </g>
     </g>
     <g id="line2d_30">
      <g>
       <use style="stroke:#000000;stroke-width:0.5;" x="206.534793988" xlink:href="#ma271c4e3b0" y="171.343108229"/>
      </g>
     </g>
     <g id="text_19">
      <!-- 0.4 -->
      <g transform="translate(196.992918988 254.763929687)scale(0.12 -0.12)">
       <use xlink:href="#BitstreamVeraSans-Roman-30"/>
       <use x="63.623046875" xlink:href="#BitstreamVeraSans-Roman-2e"/>
       <use x="95.41015625" xlink:href="#BitstreamVeraSans-Roman-34"/>
      </g>
     </g>
    </g>
    <g id="xtick_10">
     <g id="line2d_31">
      <g>
       <use style="stroke:#000000;stroke-width:0.5;" x="272.878445886" xlink:href="#me59cd8c9ca" y="241.645804687"/>
      </g>
     </g>
     <g id="line2d_32">
      <g>
       <use style="stroke:#000000;stroke-width:0.5;" x="272.878445886" xlink:href="#ma271c4e3b0" y="171.343108229"/>
      </g>
     </g>
     <g id="text_20">
      <!-- 0.6 -->
      <g transform="translate(263.336570886 254.763929687)scale(0.12 -0.12)">
       <use xlink:href="#BitstreamVeraSans-Roman-30"/>
       <use x="63.623046875" xlink:href="#BitstreamVeraSans-Roman-2e"/>
       <use x="95.41015625" xlink:href="#BitstreamVeraSans-Roman-36"/>
      </g>
     </g>
    </g>
    <g id="xtick_11">
     <g id="line2d_33">
      <g>
       <use style="stroke:#000000;stroke-width:0.5;" x="339.222097785" xlink:href="#me59cd8c9ca" y="241.645804687"/>
      </g>
     </g>
     <g id="line2d_34">
      <g>
       <use style="stroke:#000000;stroke-width:0.5;" x="339.222097785" xlink:href="#ma271c4e3b0" y="171.343108229"/>
      </g>
     </g>
     <g id="text_21">
      <!-- 0.8 -->
      <g transform="translate(329.680222785 254.763929687)scale(0.12 -0.12)">
       <use xlink:href="#BitstreamVeraSans-Roman-30"/>
       <use x="63.623046875" xlink:href="#BitstreamVeraSans-Roman-2e"/>
       <use x="95.41015625" xlink:href="#BitstreamVeraSans-Roman-38"/>
      </g>
     </g>
    </g>
    <g id="xtick_12">
     <g id="line2d_35">
      <g>
       <use style="stroke:#000000;stroke-width:0.5;" x="405.565749684" xlink:href="#me59cd8c9ca" y="241.645804687"/>
      </g>
     </g>
     <g id="line2d_36">
      <g>
       <use style="stroke:#000000;stroke-width:0.5;" x="405.565749684" xlink:href="#ma271c4e3b0" y="171.343108229"/>
      </g>
     </g>
     <g id="text_22">
      <!-- 1.0 -->
      <g transform="translate(396.023874684 254.763929687)scale(0.12 -0.12)">
       <use xlink:href="#BitstreamVeraSans-Roman-31"/>
       <use x="63.623046875" xlink:href="#BitstreamVeraSans-Roman-2e"/>
       <use x="95.41015625" xlink:href="#BitstreamVeraSans-Roman-30"/>
      </g>
     </g>
    </g>
    <g id="text_23">
     <!-- $x(t), \; m$ -->
     <g transform="translate(219.966619937 271.259554687)scale(0.12 -0.12)">
      <use xlink:href="#Cmmi10-78"/>
      <use transform="translate(57.080078125 0.0)" xlink:href="#Cmr10-28"/>
      <use transform="translate(95.8984375 0.0)" xlink:href="#Cmmi10-74"/>
      <use transform="translate(131.982421875 0.0)" xlink:href="#Cmr10-29"/>
      <use transform="translate(170.80078125 0.0)" xlink:href="#Cmmi10-3b"/>
      <use transform="translate(240.432052734375 0.0)" xlink:href="#Cmmi10-6d"/>
     </g>
    </g>
    <g id="text_24">
     <!-- 1e−4 -->
     <g transform="translate(379.490739874 269.377679687)scale(0.12 -0.12)">
      <use xlink:href="#BitstreamVeraSans-Roman-31"/>
      <use x="63.623046875" xlink:href="#BitstreamVeraSans-Roman-65"/>
      <use x="125.146484375" xlink:href="#BitstreamVeraSans-Roman-2212"/>
      <use x="208.935546875" xlink:href="#BitstreamVeraSans-Roman-34"/>
     </g>
    </g>
   </g>
   <g id="matplotlib.axis_4">
    <g id="ytick_6">
     <g id="line2d_37">
      <g>
       <use style="stroke:#000000;stroke-width:0.5;" x="67.213125" xlink:href="#mea1d9ac31d" y="241.645804687"/>
      </g>
     </g>
     <g id="line2d_38">
      <g>
       <use style="stroke:#000000;stroke-width:0.5;" x="412.200114874" xlink:href="#m9e64da8b28" y="241.645804687"/>
      </g>
     </g>
     <g id="text_25">
      <!-- −1.0 -->
      <g transform="translate(34.07375 244.957054687)scale(0.12 -0.12)">
       <use xlink:href="#BitstreamVeraSans-Roman-2212"/>
       <use x="83.7890625" xlink:href="#BitstreamVeraSans-Roman-31"/>
       <use x="147.412109375" xlink:href="#BitstreamVeraSans-Roman-2e"/>
       <use x="179.19921875" xlink:href="#BitstreamVeraSans-Roman-30"/>
      </g>
     </g>
    </g>
    <g id="ytick_7">
     <g id="line2d_39">
      <g>
       <use style="stroke:#000000;stroke-width:0.5;" x="67.213125" xlink:href="#mea1d9ac31d" y="224.070130573"/>
      </g>
     </g>
     <g id="line2d_40">
      <g>
       <use style="stroke:#000000;stroke-width:0.5;" x="412.200114874" xlink:href="#m9e64da8b28" y="224.070130573"/>
      </g>
     </g>
     <g id="text_26">
      <!-- −0.5 -->
      <defs>
       <path d="M 10.796875 72.90625 
L 49.515625 72.90625 
L 49.515625 64.59375 
L 19.828125 64.59375 
L 19.828125 46.734375 
Q 21.96875 47.46875 24.109375 47.828125 
Q 26.265625 48.1875 28.421875 48.1875 
Q 40.625 48.1875 47.75 41.5 
Q 54.890625 34.8125 54.890625 23.390625 
Q 54.890625 11.625 47.5625 5.09375 
Q 40.234375 -1.421875 26.90625 -1.421875 
Q 22.3125 -1.421875 17.546875 -0.640625 
Q 12.796875 0.140625 7.71875 1.703125 
L 7.71875 11.625 
Q 12.109375 9.234375 16.796875 8.0625 
Q 21.484375 6.890625 26.703125 6.890625 
Q 35.15625 6.890625 40.078125 11.328125 
Q 45.015625 15.765625 45.015625 23.390625 
Q 45.015625 31 40.078125 35.4375 
Q 35.15625 39.890625 26.703125 39.890625 
Q 22.75 39.890625 18.8125 39.015625 
Q 14.890625 38.140625 10.796875 36.28125 
z
" id="BitstreamVeraSans-Roman-35"/>
      </defs>
      <g transform="translate(34.07375 227.381380573)scale(0.12 -0.12)">
       <use xlink:href="#BitstreamVeraSans-Roman-2212"/>
       <use x="83.7890625" xlink:href="#BitstreamVeraSans-Roman-30"/>
       <use x="147.412109375" xlink:href="#BitstreamVeraSans-Roman-2e"/>
       <use x="179.19921875" xlink:href="#BitstreamVeraSans-Roman-35"/>
      </g>
     </g>
    </g>
    <g id="ytick_8">
     <g id="line2d_41">
      <g>
       <use style="stroke:#000000;stroke-width:0.5;" x="67.213125" xlink:href="#mea1d9ac31d" y="206.494456458"/>
      </g>
     </g>
     <g id="line2d_42">
      <g>
       <use style="stroke:#000000;stroke-width:0.5;" x="412.200114874" xlink:href="#m9e64da8b28" y="206.494456458"/>
      </g>
     </g>
     <g id="text_27">
      <!-- 0.0 -->
      <g transform="translate(44.129375 209.805706458)scale(0.12 -0.12)">
       <use xlink:href="#BitstreamVeraSans-Roman-30"/>
       <use x="63.623046875" xlink:href="#BitstreamVeraSans-Roman-2e"/>
       <use x="95.41015625" xlink:href="#BitstreamVeraSans-Roman-30"/>
      </g>
     </g>
    </g>
    <g id="ytick_9">
     <g id="line2d_43">
      <g>
       <use style="stroke:#000000;stroke-width:0.5;" x="67.213125" xlink:href="#mea1d9ac31d" y="188.918782344"/>
      </g>
     </g>
     <g id="line2d_44">
      <g>
       <use style="stroke:#000000;stroke-width:0.5;" x="412.200114874" xlink:href="#m9e64da8b28" y="188.918782344"/>
      </g>
     </g>
     <g id="text_28">
      <!-- 0.5 -->
      <g transform="translate(44.129375 192.230032344)scale(0.12 -0.12)">
       <use xlink:href="#BitstreamVeraSans-Roman-30"/>
       <use x="63.623046875" xlink:href="#BitstreamVeraSans-Roman-2e"/>
       <use x="95.41015625" xlink:href="#BitstreamVeraSans-Roman-35"/>
      </g>
     </g>
    </g>
    <g id="ytick_10">
     <g id="line2d_45">
      <g>
       <use style="stroke:#000000;stroke-width:0.5;" x="67.213125" xlink:href="#mea1d9ac31d" y="171.343108229"/>
      </g>
     </g>
     <g id="line2d_46">
      <g>
       <use style="stroke:#000000;stroke-width:0.5;" x="412.200114874" xlink:href="#m9e64da8b28" y="171.343108229"/>
      </g>
     </g>
     <g id="text_29">
      <!-- 1.0 -->
      <g transform="translate(44.129375 174.654358229)scale(0.12 -0.12)">
       <use xlink:href="#BitstreamVeraSans-Roman-31"/>
       <use x="63.623046875" xlink:href="#BitstreamVeraSans-Roman-2e"/>
       <use x="95.41015625" xlink:href="#BitstreamVeraSans-Roman-30"/>
      </g>
     </g>
    </g>
    <g id="text_30">
     <!-- $y(t), \; m$ -->
     <g transform="translate(26.07375 225.754456458)rotate(-90.0)scale(0.12 -0.12)">
      <use xlink:href="#Cmmi10-79"/>
      <use transform="translate(49.0234375 0.0)" xlink:href="#Cmr10-28"/>
      <use transform="translate(87.841796875 0.0)" xlink:href="#Cmmi10-74"/>
      <use transform="translate(123.92578125 0.0)" xlink:href="#Cmr10-29"/>
      <use transform="translate(162.744140625 0.0)" xlink:href="#Cmmi10-3b"/>
      <use transform="translate(232.375412109375 0.0)" xlink:href="#Cmmi10-6d"/>
     </g>
    </g>
    <g id="text_31">
     <!-- 1e−3 -->
     <g transform="translate(67.213125 168.343108229)scale(0.12 -0.12)">
      <use xlink:href="#BitstreamVeraSans-Roman-31"/>
      <use x="63.623046875" xlink:href="#BitstreamVeraSans-Roman-65"/>
      <use x="125.146484375" xlink:href="#BitstreamVeraSans-Roman-2212"/>
      <use x="208.935546875" xlink:href="#BitstreamVeraSans-Roman-33"/>
     </g>
    </g>
   </g>
   <g id="text_32">
    <!-- $t \in [ 0s; 1\cdot 10^{-09}s ], \; u_x = 1.0\cdot 10^{+05}\frac{m}{s}$ -->
    <defs>
     <path d="M 8.6875 11.375 
Q 9.71875 8.453125 11.84375 6.046875 
Q 13.96875 3.65625 16.875 2.3125 
Q 19.78125 0.984375 22.90625 0.984375 
Q 30.125 0.984375 32.859375 6.59375 
Q 35.59375 12.203125 35.59375 20.21875 
Q 35.59375 23.6875 35.46875 26.046875 
Q 35.359375 28.421875 34.8125 30.609375 
Q 33.890625 34.125 31.5625 36.765625 
Q 29.25 39.40625 25.875 39.40625 
Q 22.515625 39.40625 20.09375 38.375 
Q 17.671875 37.359375 16.15625 35.984375 
Q 14.65625 34.625 13.484375 33.109375 
Q 12.3125 31.59375 12.015625 31.5 
L 10.890625 31.5 
Q 10.640625 31.5 10.265625 31.8125 
Q 9.90625 32.125 9.90625 32.421875 
L 9.90625 65.828125 
Q 9.90625 66.0625 10.21875 66.328125 
Q 10.546875 66.609375 10.890625 66.609375 
L 11.1875 66.609375 
Q 17.921875 63.375 25.484375 63.375 
Q 32.90625 63.375 39.796875 66.609375 
L 40.09375 66.609375 
Q 40.4375 66.609375 40.71875 66.359375 
Q 41.015625 66.109375 41.015625 65.828125 
L 41.015625 64.890625 
Q 41.015625 64.40625 40.828125 64.40625 
Q 37.40625 59.859375 32.25 57.3125 
Q 27.09375 54.78125 21.578125 54.78125 
Q 17.578125 54.78125 13.375 55.90625 
L 13.375 37.015625 
Q 16.703125 39.703125 19.3125 40.84375 
Q 21.921875 42 25.984375 42 
Q 31.5 42 35.859375 38.8125 
Q 40.234375 35.640625 42.578125 30.53125 
Q 44.921875 25.4375 44.921875 20.125 
Q 44.921875 14.109375 41.96875 8.984375 
Q 39.015625 3.859375 33.9375 0.828125 
Q 28.859375 -2.203125 22.90625 -2.203125 
Q 17.96875 -2.203125 13.84375 0.328125 
Q 9.71875 2.875 7.34375 7.171875 
Q 4.984375 11.46875 4.984375 16.3125 
Q 4.984375 18.5625 6.4375 19.96875 
Q 7.90625 21.390625 10.109375 21.390625 
Q 12.3125 21.390625 13.796875 19.9375 
Q 15.28125 18.5 15.28125 16.3125 
Q 15.28125 14.15625 13.796875 12.671875 
Q 12.3125 11.1875 10.109375 11.1875 
Q 9.765625 11.1875 9.328125 11.25 
Q 8.890625 11.328125 8.6875 11.375 
" id="Cmr10-35"/>
     <path d="M 8.40625 5.515625 
Q 8.40625 7.765625 10.0625 9.375 
Q 11.71875 10.984375 13.921875 10.984375 
Q 15.28125 10.984375 16.59375 10.25 
Q 17.921875 9.515625 18.65625 8.203125 
Q 19.390625 6.890625 19.390625 5.515625 
Q 19.390625 3.328125 17.765625 1.65625 
Q 16.15625 0 13.921875 0 
Q 11.71875 0 10.0625 1.65625 
Q 8.40625 3.328125 8.40625 5.515625 
" id="Cmmi10-3a"/>
     <path d="M 7.515625 23 
Q 6.6875 23 6.140625 23.625 
Q 5.609375 24.265625 5.609375 25 
Q 5.609375 25.734375 6.140625 26.359375 
Q 6.6875 27 7.515625 27 
L 36.921875 27 
L 36.921875 56.5 
Q 36.921875 57.28125 37.5 57.78125 
Q 38.09375 58.296875 38.921875 58.296875 
Q 39.65625 58.296875 40.28125 57.78125 
Q 40.921875 57.28125 40.921875 56.5 
L 40.921875 27 
L 70.3125 27 
Q 71.046875 27 71.578125 26.359375 
Q 72.125 25.734375 72.125 25 
Q 72.125 24.265625 71.578125 23.625 
Q 71.046875 23 70.3125 23 
L 40.921875 23 
L 40.921875 -6.5 
Q 40.921875 -7.28125 40.28125 -7.78125 
Q 39.65625 -8.296875 38.921875 -8.296875 
Q 38.09375 -8.296875 37.5 -7.78125 
Q 36.921875 -7.28125 36.921875 -6.5 
L 36.921875 23 
z
" id="Cmr10-2b"/>
    </defs>
    <g transform="translate(129.258619937 166.343108229)scale(0.144 -0.144)">
     <use transform="translate(0.0 0.109375)" xlink:href="#Cmmi10-74"/>
     <use transform="translate(53.642578125 0.109375)" xlink:href="#Cmsy10-32"/>
     <use transform="translate(137.802734375 0.109375)" xlink:href="#Cmr10-5b"/>
     <use transform="translate(165.48828125 0.109375)" xlink:href="#Cmr10-30"/>
     <use transform="translate(215.48828125 0.109375)" xlink:href="#Cmmi10-73"/>
     <use transform="translate(262.265625 0.109375)" xlink:href="#Cmr10-3b"/>
     <use transform="translate(307.509765625 0.109375)" xlink:href="#Cmr10-31"/>
     <use transform="translate(375.068359375 0.109375)" xlink:href="#Cmsy10-a2"/>
     <use transform="translate(420.3125 0.109375)" xlink:href="#Cmr10-31"/>
     <use transform="translate(470.3125 0.109375)" xlink:href="#Cmr10-30"/>
     <use transform="translate(524.776640625 38.3734375)scale(0.7)" xlink:href="#Cmsy10-a1"/>
     <use transform="translate(579.1565234375 38.3734375)scale(0.7)" xlink:href="#Cmr10-30"/>
     <use transform="translate(614.1565234375 38.3734375)scale(0.7)" xlink:href="#Cmr10-39"/>
     <use transform="translate(655.5338671874999 0.109375)" xlink:href="#Cmmi10-73"/>
     <use transform="translate(702.3112109374999 0.109375)" xlink:href="#Cmr10-5d"/>
     <use transform="translate(729.9967578124999 0.109375)" xlink:href="#Cmmi10-3b"/>
     <use transform="translate(799.628029296875 0.109375)" xlink:href="#Cmmi10-75"/>
     <use transform="translate(856.805763671875 -16.896874999999994)scale(0.7)" xlink:href="#Cmmi10-78"/>
     <use transform="translate(920.697755859375 0.109375)" xlink:href="#Cmr10-3d"/>
     <use transform="translate(1015.941896484375 0.109375)" xlink:href="#Cmr10-31"/>
     <use transform="translate(1065.9418964843749 0.109375)" xlink:href="#Cmmi10-3a"/>
     <use transform="translate(1111.1860371093749 0.109375)" xlink:href="#Cmr10-30"/>
     <use transform="translate(1178.7446308593749 0.109375)" xlink:href="#Cmsy10-a2"/>
     <use transform="translate(1223.9887714843749 0.109375)" xlink:href="#Cmr10-31"/>
     <use transform="translate(1273.9887714843749 0.109375)" xlink:href="#Cmr10-30"/>
     <use transform="translate(1328.452912109375 38.3734375)scale(0.7)" xlink:href="#Cmr10-2b"/>
     <use transform="translate(1382.832794921875 38.3734375)scale(0.7)" xlink:href="#Cmr10-30"/>
     <use transform="translate(1417.832794921875 38.3734375)scale(0.7)" xlink:href="#Cmr10-35"/>
     <use transform="translate(1459.2101386718748 38.396875)scale(0.7)" xlink:href="#Cmmi10-6d"/>
     <use transform="translate(1473.2101386718748 -24.571875000000006)scale(0.7)" xlink:href="#Cmmi10-73"/>
     <path d="M 1459.210139 12.609375 
L 1459.210139 18.859375 
L 1520.665217 18.859375 
L 1520.665217 12.609375 
L 1459.210139 12.609375 
z
"/>
    </g>
   </g>
  </g>
  <g id="axes_3">
   <g id="patch_12">
    <path d="M 67.213125 380.743805 
L 412.200115 380.743805 
L 412.200115 310.441108 
L 67.213125 310.441108 
z
" style="fill:#ffffff;"/>
   </g>
   <g id="line2d_47">
    <path clip-path="url(#p0d00cdb861)" d="M 73.84749 316.299666 
L 75.412207 316.340512 
L 76.973434 316.462935 
L 80.071513 316.950922 
L 83.114172 317.758186 
L 86.074474 318.875731 
L 88.926402 320.291098 
L 91.645144 321.988511 
L 94.207374 323.949049 
L 96.59151 326.150858 
L 98.777957 328.569395 
L 100.749321 331.177702 
L 102.490608 333.946703 
L 103.989387 336.845533 
L 105.23593 339.84188 
L 106.223322 342.902343 
L 106.947535 345.992808 
L 107.407477 349.078827 
L 107.604999 352.125999 
L 107.544879 355.100359 
L 107.234767 357.968753 
L 106.685098 360.699205 
L 105.908979 363.261281 
L 104.92204 365.626422 
L 103.742262 367.768264 
L 102.389775 369.662931 
L 100.886634 371.289305 
L 99.256573 372.629257 
L 97.524743 373.667849 
L 95.717425 374.393507 
L 93.861746 374.798139 
L 91.98537 374.877237 
L 90.116192 374.629919 
L 88.282026 374.05894 
L 86.510296 373.170667 
L 84.827732 371.975 
L 83.260067 370.485267 
L 81.831755 368.718074 
L 80.565697 366.69312 
L 79.482985 364.432976 
L 78.602666 361.962837 
L 77.941533 359.310235 
L 77.513934 356.504739 
L 77.331615 353.577622 
L 77.403588 350.561512 
L 77.736029 347.490028 
L 78.332212 344.397409 
L 79.192471 341.318126 
L 80.314195 338.286504 
L 81.691862 335.336337 
L 83.317092 332.500509 
L 85.178749 329.81063 
L 87.263061 327.296684 
L 89.553774 324.986695 
L 92.032333 322.90641 
L 94.678088 321.079018 
L 97.468528 319.524889 
L 100.379526 318.261347 
L 103.385615 317.302477 
L 106.460264 316.658965 
L 109.576181 316.337986 
L 112.705612 316.343118 
L 115.820652 316.674303 
L 118.89356 317.327849 
L 121.89706 318.296473 
L 124.804652 319.569375 
L 127.590906 321.132369 
L 130.231742 322.968031 
L 132.704703 325.055899 
L 134.989202 327.372701 
L 137.066754 329.892611 
L 138.92118 332.58754 
L 140.538788 335.427449 
L 141.908526 338.380682 
L 143.022105 341.414318 
L 143.874092 344.494544 
L 144.461969 347.587024 
L 144.786162 350.657287 
L 144.850037 353.671108 
L 144.659861 356.594895 
L 144.224732 359.396055 
L 143.556482 362.043364 
L 142.669537 364.507314 
L 141.580763 366.76044 
L 140.309277 368.777625 
L 138.87623 370.536385 
L 137.304576 372.017116 
L 135.618813 373.203311 
L 133.844711 374.081748 
L 132.009025 374.642637 
L 130.139196 374.879723 
L 128.263046 374.790366 
L 126.408468 374.37556 
L 124.603113 373.63993 
L 122.874084 372.591676 
L 121.247635 371.242482 
L 119.748874 369.607387 
L 118.401487 367.704618 
L 117.227471 365.555384 
L 116.246894 363.183643 
L 115.477664 360.615832 
L 114.935335 357.880574 
L 114.632932 355.008358 
L 114.580805 352.031201 
L 114.786514 348.982288 
L 115.254745 345.895605 
L 115.987259 342.805559 
L 116.982868 339.746594 
L 118.237456 336.752807 
L 119.744016 333.857571 
L 121.492733 331.093157 
L 123.471096 328.49038 
L 125.66403 326.078253 
L 128.054071 323.883664 
L 130.621556 321.931075 
L 133.344845 320.24225 
L 136.200562 318.836017 
L 139.163853 317.728048 
L 142.208667 316.930696 
L 145.308043 316.452846 
L 148.434412 316.299828 
L 151.559903 316.473344 
L 154.656658 316.971463 
L 157.697135 317.788631 
L 160.654423 318.915739 
L 163.502537 320.340224 
L 166.216708 322.046207 
L 168.773662 324.014672 
L 171.151875 326.223677 
L 173.331817 328.648598 
L 175.296169 331.262405 
L 177.030012 334.035963 
L 178.521 336.938355 
L 179.759492 339.937229 
L 180.738662 342.999156 
L 181.454574 346.090007 
L 181.906228 349.175327 
L 182.095568 352.220726 
L 182.027463 355.192256 
L 181.709652 358.056795 
L 181.152656 360.782412 
L 180.369663 363.338725 
L 179.376381 365.697239 
L 178.19086 367.831665 
L 176.833295 369.71821 
L 175.325797 371.335845 
L 173.69215 372.66654 
L 171.957543 373.695459 
L 170.14829 374.411136 
L 168.291538 374.805591 
L 166.414963 374.874429 
L 164.546462 374.616881 
L 162.713843 374.035819 
L 160.944513 373.13772 
L 159.265173 371.932594 
L 157.701521 370.433875 
L 156.277967 368.658269 
L 155.017359 366.625568 
L 153.940726 364.358431 
L 153.06705 361.882129 
L 152.413049 359.224264 
L 151.992991 356.414464 
L 151.818538 353.484048 
L 151.898615 350.465683 
L 152.239307 347.393012 
L 152.843797 344.300286 
L 153.712325 341.221981 
L 154.842189 338.192408 
L 156.227775 335.245338 
L 157.860617 332.413621 
L 159.729492 329.728823 
L 161.820548 327.22087 
L 164.117456 324.917717 
L 166.601592 322.845038 
L 169.252244 321.025937 
L 172.046846 319.480691 
L 174.961226 318.226523 
L 177.969877 317.277415 
L 181.046241 316.643946 
L 184.163006 316.333177 
L 187.292409 316.348572 
L 190.406547 316.689959 
L 193.477686 317.353534 
L 196.478571 318.331898 
L 199.382732 319.614148 
L 202.164775 321.185989 
L 204.80067 323.029901 
L 207.268013 325.125329 
L 209.54628 327.448918 
L 211.617056 329.974764 
L 213.464237 332.674715 
L 215.074212 335.518673 
L 216.436014 338.474938 
L 217.541443 341.510557 
L 218.385155 344.591692 
L 218.964726 347.683998 
L 219.280675 350.753006 
L 219.336458 353.764506 
L 219.138433 356.684929 
L 218.695787 359.481723 
L 218.020433 362.123711 
L 217.126878 364.581444 
L 216.032063 366.827526 
L 214.755169 368.83692 
L 213.31741 370.587229 
L 211.741791 372.05894 
L 210.052855 373.23565 
L 208.276406 374.104242 
L 206.439227 374.655035 
L 204.568775 374.881887 
L 202.692879 374.782271 
L 200.839428 374.357297 
L 199.036063 373.611703 
L 197.309863 372.553798 
L 195.68705 371.195376 
L 194.192692 369.551579 
L 192.850426 367.640729 
L 191.682193 365.484127 
L 190.707995 363.105811 
L 189.94567 360.532294 
L 189.410694 357.79226 
L 189.116011 354.916253 
L 189.071883 351.936332 
L 189.285784 348.885712 
L 189.762306 345.798398 
L 190.503118 342.708806 
L 191.506942 339.651372 
L 192.769567 336.660179 
L 194.283898 333.768568 
L 196.040035 331.008772 
L 198.025381 328.411554 
L 200.224785 326.005864 
L 202.62071 323.818518 
L 205.193429 321.873899 
L 207.921243 320.193682 
L 210.780724 318.796597 
L 213.746979 317.698217 
L 216.793921 316.910785 
L 219.894567 316.443079 
L 223.021332 316.300311 
L 226.146344 316.484074 
L 229.241747 316.99232 
L 232.280016 317.819381 
L 235.234265 318.956041 
L 238.07854 320.389628 
L 240.788118 322.104162 
L 243.339774 324.080533 
L 245.712044 326.296709 
L 247.885465 328.727987 
L 249.842788 331.347266 
L 251.569176 334.125351 
L 253.052364 337.031272 
L 254.282798 340.03264 
L 255.253741 343.095998 
L 255.961352 346.1872 
L 256.404719 349.271788 
L 256.585882 352.315379 
L 256.5098 355.284047 
L 256.1843 358.1447 
L 255.61999 360.865451 
L 254.830139 363.415973 
L 253.830531 365.767835 
L 252.639288 367.894822 
L 251.276666 369.773224 
L 249.764836 371.382102 
L 248.127627 372.703524 
L 246.390269 373.72276 
L 244.579107 374.428447 
L 242.72131 374.812721 
L 240.844564 374.871298 
L 238.976769 374.603524 
L 237.145724 374.012384 
L 235.378819 373.104469 
L 233.702728 371.889898 
L 232.143114 370.382209 
L 230.72434 368.59821 
L 229.469202 366.557785 
L 228.398668 364.283679 
L 227.531651 361.801241 
L 226.884795 359.138143 
L 226.47229 356.324069 
L 226.305713 353.390387 
L 226.393899 350.369799 
L 226.742846 347.295975 
L 227.355642 344.203178 
L 228.232437 341.125883 
L 229.370436 338.098392 
L 230.763933 335.154452 
L 232.404375 332.326879 
L 234.280454 329.64719 
L 236.378238 327.145257 
L 238.681323 324.848967 
L 241.171016 322.783918 
L 243.826543 320.973127 
L 246.625283 319.436779 
L 249.543019 318.192 
L 252.554206 317.252666 
L 255.632258 316.629246 
L 258.749844 316.32869 
L 261.879192 316.354348 
L 264.992399 316.705934 
L 268.061742 317.379529 
L 271.059986 318.367624 
L 273.960691 319.659207 
L 276.738501 321.239878 
L 279.369432 323.092019 
L 281.831136 325.194985 
L 284.103154 327.525334 
L 286.167138 330.05709 
L 288.00706 332.762032 
L 289.609391 335.610008 
L 290.963249 338.569273 
L 292.060522 341.60684 
L 292.895957 344.68885 
L 293.467223 347.780948 
L 293.77493 350.848668 
L 293.822628 353.857813 
L 293.616764 356.774842 
L 293.166612 359.567238 
L 292.484169 362.203876 
L 291.584022 364.655365 
L 290.483183 366.894379 
L 289.200902 368.89596 
L 287.758454 370.637797 
L 286.178894 372.100473 
L 284.48681 373.267686 
L 282.708042 374.126423 
L 280.869397 374.667113 
L 278.998349 374.883728 
L 277.122734 374.773855 
L 275.270439 374.338717 
L 273.469089 373.583166 
L 271.745744 372.515623 
L 270.126591 371.147988 
L 268.63666 369.495506 
L 267.299538 367.576597 
L 266.137107 365.41265 
L 265.169306 363.027787 
L 264.4139 360.448591 
L 263.88629 357.703812 
L 263.599336 354.824046 
L 263.563217 351.841392 
L 263.785313 348.789099 
L 264.270128 345.70119 
L 265.019238 342.612084 
L 266.031272 339.556216 
L 267.301927 336.567649 
L 268.82402 333.679695 
L 270.587563 330.924547 
L 272.579877 328.332916 
L 274.785734 325.93369 
L 277.187524 323.753612 
L 279.765455 321.816985 
L 282.497771 320.145394 
L 285.360992 318.757473 
L 288.330184 317.668693 
L 291.379228 316.891191 
L 294.481116 316.433632 
L 297.608251 316.301118 
L 300.732756 316.495125 
L 303.82678 317.013491 
L 306.862815 317.850438 
L 309.813997 318.996636 
L 312.65441 320.439309 
L 315.359371 322.162376 
L 317.905708 324.14663 
L 320.272016 326.369953 
L 322.438898 328.807562 
L 324.38918 331.432285 
L 326.1081 334.214864 
L 327.583478 337.124284 
L 328.805847 340.128113 
L 329.768561 343.192868 
L 330.467868 346.284387 
L 330.902952 349.368209 
L 331.075943 352.409959 
L 330.991891 355.375731 
L 330.658713 358.232467 
L 330.087102 360.948323 
L 329.290408 363.493025 
L 328.284492 365.838209 
L 327.087546 367.957733 
L 325.719891 369.827971 
L 324.203751 371.428075 
L 322.563005 372.740211 
L 320.822923 373.74975 
L 319.009879 374.445442 
L 317.151063 374.81953 
L 315.274173 374.867844 
L 313.407111 374.589847 
L 311.577668 373.988637 
L 309.813214 373.070915 
L 308.140398 371.846912 
L 306.584846 370.330271 
L 305.170875 368.537897 
L 303.921227 366.489771 
L 302.856811 364.208721 
L 301.99647 361.720175 
L 301.356774 359.051872 
L 300.951832 356.233556 
L 300.793139 353.29664 
L 300.889441 350.273864 
L 301.246645 347.19892 
L 301.867749 344.106086 
L 302.752807 341.029835 
L 303.898935 338.00446 
L 305.300335 335.063682 
L 306.948365 332.240283 
L 308.831635 329.565734 
L 310.936131 327.069848 
L 313.245374 324.780446 
L 315.740603 322.723048 
L 318.400983 320.920588 
L 321.203837 319.393156 
L 324.124904 318.157779 
L 327.138601 317.228228 
L 330.218314 316.614864 
L 333.336693 316.324525 
L 336.465959 316.360445 
L 339.578208 316.722226 
L 342.645728 317.405835 
L 345.641305 318.40365 
L 348.538528 319.704551 
L 351.312081 321.294035 
L 353.938026 323.154386 
L 356.394072 325.264866 
L 358.659822 327.60195 
L 360.716998 330.139587 
L 362.549648 332.84949 
L 364.144324 335.701453 
L 365.49023 338.663686 
L 366.579342 341.703168 
L 367.406499 344.786019 
L 367.96946 347.877875 
L 368.268929 350.944272 
L 368.308547 353.951029 
L 368.094853 356.864631 
L 367.637207 359.652599 
L 366.94769 362.283857 
L 366.040966 364.729076 
L 364.934123 366.960997 
L 363.646478 368.954743 
L 362.199362 370.688089 
L 360.615885 372.141715 
L 358.920679 373.299416 
L 357.139618 374.148289 
L 355.299534 374.67887 
L 353.427919 374.885247 
L 351.552613 374.765117 
L 349.7015 374.319821 
L 347.902192 373.554322 
L 346.181727 372.477152 
L 344.566261 371.100319 
L 343.08078 369.439171 
L 341.748822 367.512223 
L 340.592213 365.340955 
L 339.630826 362.94957 
L 338.882355 360.364724 
L 338.362124 357.61523 
L 338.08291 354.731736 
L 338.054805 351.746384 
L 338.285101 348.692452 
L 338.778211 345.60398 
L 339.535617 342.515395 
L 340.555857 339.461126 
L 341.834535 336.475218 
L 343.36438 333.590954 
L 345.135317 330.840485 
L 347.134584 328.254469 
L 349.346876 325.861732 
L 351.754513 323.688947 
L 354.337634 321.760332 
L 357.074428 320.097386 
L 359.941365 318.718644 
L 362.913468 317.639477 
L 365.964587 316.871912 
L 369.06769 316.424507 
L 372.195168 316.302247 
L 375.319137 316.506496 
L 378.411756 317.034977 
L 381.445529 317.8818 
L 384.39362 319.037524 
L 387.230146 320.489268 
L 389.930468 322.220848 
L 392.471465 324.212964 
L 394.831792 326.443409 
L 396.992118 328.887321 
L 398.935343 331.517459 
L 400.646783 334.304504 
L 402.114342 337.217389 
L 403.32864 340.223646 
L 404.283121 343.289764 
L 404.974124 346.381566 
L 405.400926 349.464588 
L 405.56575 352.504463 
L 405.473736 355.467308 
L 405.13289 358.320095 
L 404.553991 361.031025 
L 403.750471 363.56988 
L 402.738265 365.90836 
L 401.535636 368.020398 
L 400.869206 368.984038 
L 400.869206 368.984038 
" style="fill:none;stroke:#ff8c00;stroke-linecap:square;stroke-width:2.0;"/>
   </g>
   <g id="patch_13">
    <path d="M 67.213125 310.441108 
L 412.200115 310.441108 
" style="fill:none;stroke:#000000;stroke-linecap:square;stroke-linejoin:miter;"/>
   </g>
   <g id="patch_14">
    <path d="M 67.213125 380.743805 
L 67.213125 310.441108 
" style="fill:none;stroke:#000000;stroke-linecap:square;stroke-linejoin:miter;"/>
   </g>
   <g id="patch_15">
    <path d="M 67.213125 380.743805 
L 412.200115 380.743805 
" style="fill:none;stroke:#000000;stroke-linecap:square;stroke-linejoin:miter;"/>
   </g>
   <g id="patch_16">
    <path d="M 412.200115 380.743805 
L 412.200115 310.441108 
" style="fill:none;stroke:#000000;stroke-linecap:square;stroke-linejoin:miter;"/>
   </g>
   <g id="matplotlib.axis_5">
    <g id="xtick_13">
     <g id="line2d_48">
      <g>
       <use style="stroke:#000000;stroke-width:0.5;" x="73.8474901899" xlink:href="#me59cd8c9ca" y="380.743804687"/>
      </g>
     </g>
     <g id="line2d_49">
      <g>
       <use style="stroke:#000000;stroke-width:0.5;" x="73.8474901899" xlink:href="#ma271c4e3b0" y="310.441108229"/>
      </g>
     </g>
     <g id="text_33">
      <!-- 0.0 -->
      <g transform="translate(64.3056151899 393.861929687)scale(0.12 -0.12)">
       <use xlink:href="#BitstreamVeraSans-Roman-30"/>
       <use x="63.623046875" xlink:href="#BitstreamVeraSans-Roman-2e"/>
       <use x="95.41015625" xlink:href="#BitstreamVeraSans-Roman-30"/>
      </g>
     </g>
    </g>
    <g id="xtick_14">
     <g id="line2d_50">
      <g>
       <use style="stroke:#000000;stroke-width:0.5;" x="136.396845248" xlink:href="#me59cd8c9ca" y="380.743804687"/>
      </g>
     </g>
     <g id="line2d_51">
      <g>
       <use style="stroke:#000000;stroke-width:0.5;" x="136.396845248" xlink:href="#ma271c4e3b0" y="310.441108229"/>
      </g>
     </g>
     <g id="text_34">
      <!-- 0.2 -->
      <g transform="translate(126.854970248 393.861929687)scale(0.12 -0.12)">
       <use xlink:href="#BitstreamVeraSans-Roman-30"/>
       <use x="63.623046875" xlink:href="#BitstreamVeraSans-Roman-2e"/>
       <use x="95.41015625" xlink:href="#BitstreamVeraSans-Roman-32"/>
      </g>
     </g>
    </g>
    <g id="xtick_15">
     <g id="line2d_52">
      <g>
       <use style="stroke:#000000;stroke-width:0.5;" x="198.946200306" xlink:href="#me59cd8c9ca" y="380.743804687"/>
      </g>
     </g>
     <g id="line2d_53">
      <g>
       <use style="stroke:#000000;stroke-width:0.5;" x="198.946200306" xlink:href="#ma271c4e3b0" y="310.441108229"/>
      </g>
     </g>
     <g id="text_35">
      <!-- 0.4 -->
      <g transform="translate(189.404325306 393.861929687)scale(0.12 -0.12)">
       <use xlink:href="#BitstreamVeraSans-Roman-30"/>
       <use x="63.623046875" xlink:href="#BitstreamVeraSans-Roman-2e"/>
       <use x="95.41015625" xlink:href="#BitstreamVeraSans-Roman-34"/>
      </g>
     </g>
    </g>
    <g id="xtick_16">
     <g id="line2d_54">
      <g>
       <use style="stroke:#000000;stroke-width:0.5;" x="261.495555364" xlink:href="#me59cd8c9ca" y="380.743804687"/>
      </g>
     </g>
     <g id="line2d_55">
      <g>
       <use style="stroke:#000000;stroke-width:0.5;" x="261.495555364" xlink:href="#ma271c4e3b0" y="310.441108229"/>
      </g>
     </g>
     <g id="text_36">
      <!-- 0.6 -->
      <g transform="translate(251.953680364 393.861929687)scale(0.12 -0.12)">
       <use xlink:href="#BitstreamVeraSans-Roman-30"/>
       <use x="63.623046875" xlink:href="#BitstreamVeraSans-Roman-2e"/>
       <use x="95.41015625" xlink:href="#BitstreamVeraSans-Roman-36"/>
      </g>
     </g>
    </g>
    <g id="xtick_17">
     <g id="line2d_56">
      <g>
       <use style="stroke:#000000;stroke-width:0.5;" x="324.044910422" xlink:href="#me59cd8c9ca" y="380.743804687"/>
      </g>
     </g>
     <g id="line2d_57">
      <g>
       <use style="stroke:#000000;stroke-width:0.5;" x="324.044910422" xlink:href="#ma271c4e3b0" y="310.441108229"/>
      </g>
     </g>
     <g id="text_37">
      <!-- 0.8 -->
      <g transform="translate(314.503035422 393.861929687)scale(0.12 -0.12)">
       <use xlink:href="#BitstreamVeraSans-Roman-30"/>
       <use x="63.623046875" xlink:href="#BitstreamVeraSans-Roman-2e"/>
       <use x="95.41015625" xlink:href="#BitstreamVeraSans-Roman-38"/>
      </g>
     </g>
    </g>
    <g id="xtick_18">
     <g id="line2d_58">
      <g>
       <use style="stroke:#000000;stroke-width:0.5;" x="386.59426548" xlink:href="#me59cd8c9ca" y="380.743804687"/>
      </g>
     </g>
     <g id="line2d_59">
      <g>
       <use style="stroke:#000000;stroke-width:0.5;" x="386.59426548" xlink:href="#ma271c4e3b0" y="310.441108229"/>
      </g>
     </g>
     <g id="text_38">
      <!-- 1.0 -->
      <g transform="translate(377.05239048 393.861929687)scale(0.12 -0.12)">
       <use xlink:href="#BitstreamVeraSans-Roman-31"/>
       <use x="63.623046875" xlink:href="#BitstreamVeraSans-Roman-2e"/>
       <use x="95.41015625" xlink:href="#BitstreamVeraSans-Roman-30"/>
      </g>
     </g>
    </g>
    <g id="text_39">
     <!-- $x(t), \; m$ -->
     <g transform="translate(219.966619937 410.357554687)scale(0.12 -0.12)">
      <use xlink:href="#Cmmi10-78"/>
      <use transform="translate(57.080078125 0.0)" xlink:href="#Cmr10-28"/>
      <use transform="translate(95.8984375 0.0)" xlink:href="#Cmmi10-74"/>
      <use transform="translate(131.982421875 0.0)" xlink:href="#Cmr10-29"/>
      <use transform="translate(170.80078125 0.0)" xlink:href="#Cmmi10-3b"/>
      <use transform="translate(240.432052734375 0.0)" xlink:href="#Cmmi10-6d"/>
     </g>
    </g>
    <g id="text_40">
     <!-- 1e−4 -->
     <g transform="translate(379.490739874 408.475679687)scale(0.12 -0.12)">
      <use xlink:href="#BitstreamVeraSans-Roman-31"/>
      <use x="63.623046875" xlink:href="#BitstreamVeraSans-Roman-65"/>
      <use x="125.146484375" xlink:href="#BitstreamVeraSans-Roman-2212"/>
      <use x="208.935546875" xlink:href="#BitstreamVeraSans-Roman-34"/>
     </g>
    </g>
   </g>
   <g id="matplotlib.axis_6">
    <g id="ytick_11">
     <g id="line2d_60">
      <g>
       <use style="stroke:#000000;stroke-width:0.5;" x="67.213125" xlink:href="#mea1d9ac31d" y="374.259381231"/>
      </g>
     </g>
     <g id="line2d_61">
      <g>
       <use style="stroke:#000000;stroke-width:0.5;" x="412.200114874" xlink:href="#m9e64da8b28" y="374.259381231"/>
      </g>
     </g>
     <g id="text_41">
      <!-- −1.5 -->
      <g transform="translate(34.07375 377.570631231)scale(0.12 -0.12)">
       <use xlink:href="#BitstreamVeraSans-Roman-2212"/>
       <use x="83.7890625" xlink:href="#BitstreamVeraSans-Roman-31"/>
       <use x="147.412109375" xlink:href="#BitstreamVeraSans-Roman-2e"/>
       <use x="179.19921875" xlink:href="#BitstreamVeraSans-Roman-35"/>
      </g>
     </g>
    </g>
    <g id="ytick_12">
     <g id="line2d_62">
      <g>
       <use style="stroke:#000000;stroke-width:0.5;" x="67.213125" xlink:href="#mea1d9ac31d" y="354.939476243"/>
      </g>
     </g>
     <g id="line2d_63">
      <g>
       <use style="stroke:#000000;stroke-width:0.5;" x="412.200114874" xlink:href="#m9e64da8b28" y="354.939476243"/>
      </g>
     </g>
     <g id="text_42">
      <!-- −1.0 -->
      <g transform="translate(34.07375 358.250726243)scale(0.12 -0.12)">
       <use xlink:href="#BitstreamVeraSans-Roman-2212"/>
       <use x="83.7890625" xlink:href="#BitstreamVeraSans-Roman-31"/>
       <use x="147.412109375" xlink:href="#BitstreamVeraSans-Roman-2e"/>
       <use x="179.19921875" xlink:href="#BitstreamVeraSans-Roman-30"/>
      </g>
     </g>
    </g>
    <g id="ytick_13">
     <g id="line2d_64">
      <g>
       <use style="stroke:#000000;stroke-width:0.5;" x="67.213125" xlink:href="#mea1d9ac31d" y="335.619571255"/>
      </g>
     </g>
     <g id="line2d_65">
      <g>
       <use style="stroke:#000000;stroke-width:0.5;" x="412.200114874" xlink:href="#m9e64da8b28" y="335.619571255"/>
      </g>
     </g>
     <g id="text_43">
      <!-- −0.5 -->
      <g transform="translate(34.07375 338.930821255)scale(0.12 -0.12)">
       <use xlink:href="#BitstreamVeraSans-Roman-2212"/>
       <use x="83.7890625" xlink:href="#BitstreamVeraSans-Roman-30"/>
       <use x="147.412109375" xlink:href="#BitstreamVeraSans-Roman-2e"/>
       <use x="179.19921875" xlink:href="#BitstreamVeraSans-Roman-35"/>
      </g>
     </g>
    </g>
    <g id="ytick_14">
     <g id="line2d_66">
      <g>
       <use style="stroke:#000000;stroke-width:0.5;" x="67.213125" xlink:href="#mea1d9ac31d" y="316.299666267"/>
      </g>
     </g>
     <g id="line2d_67">
      <g>
       <use style="stroke:#000000;stroke-width:0.5;" x="412.200114874" xlink:href="#m9e64da8b28" y="316.299666267"/>
      </g>
     </g>
     <g id="text_44">
      <!-- 0.0 -->
      <g transform="translate(44.129375 319.610916267)scale(0.12 -0.12)">
       <use xlink:href="#BitstreamVeraSans-Roman-30"/>
       <use x="63.623046875" xlink:href="#BitstreamVeraSans-Roman-2e"/>
       <use x="95.41015625" xlink:href="#BitstreamVeraSans-Roman-30"/>
      </g>
     </g>
    </g>
    <g id="text_45">
     <!-- $y(t), \; m$ -->
     <g transform="translate(26.07375 364.852456458)rotate(-90.0)scale(0.12 -0.12)">
      <use xlink:href="#Cmmi10-79"/>
      <use transform="translate(49.0234375 0.0)" xlink:href="#Cmr10-28"/>
      <use transform="translate(87.841796875 0.0)" xlink:href="#Cmmi10-74"/>
      <use transform="translate(123.92578125 0.0)" xlink:href="#Cmr10-29"/>
      <use transform="translate(162.744140625 0.0)" xlink:href="#Cmmi10-3b"/>
      <use transform="translate(232.375412109375 0.0)" xlink:href="#Cmmi10-6d"/>
     </g>
    </g>
    <g id="text_46">
     <!-- 1e−5 -->
     <g transform="translate(67.213125 307.441108229)scale(0.12 -0.12)">
      <use xlink:href="#BitstreamVeraSans-Roman-31"/>
      <use x="63.623046875" xlink:href="#BitstreamVeraSans-Roman-65"/>
      <use x="125.146484375" xlink:href="#BitstreamVeraSans-Roman-2212"/>
      <use x="208.935546875" xlink:href="#BitstreamVeraSans-Roman-35"/>
     </g>
    </g>
   </g>
   <g id="text_47">
    <!-- $t \in [ 0s; 1\cdot 10^{-09}s ], \; u_x = 5.0\cdot 10^{+05}\frac{m}{s}$ -->
    <g transform="translate(129.258619937 305.441108229)scale(0.144 -0.144)">
     <use transform="translate(0.0 0.109375)" xlink:href="#Cmmi10-74"/>
     <use transform="translate(53.642578125 0.109375)" xlink:href="#Cmsy10-32"/>
     <use transform="translate(137.802734375 0.109375)" xlink:href="#Cmr10-5b"/>
     <use transform="translate(165.48828125 0.109375)" xlink:href="#Cmr10-30"/>
     <use transform="translate(215.48828125 0.109375)" xlink:href="#Cmmi10-73"/>
     <use transform="translate(262.265625 0.109375)" xlink:href="#Cmr10-3b"/>
     <use transform="translate(307.509765625 0.109375)" xlink:href="#Cmr10-31"/>
     <use transform="translate(375.068359375 0.109375)" xlink:href="#Cmsy10-a2"/>
     <use transform="translate(420.3125 0.109375)" xlink:href="#Cmr10-31"/>
     <use transform="translate(470.3125 0.109375)" xlink:href="#Cmr10-30"/>
     <use transform="translate(524.776640625 38.3734375)scale(0.7)" xlink:href="#Cmsy10-a1"/>
     <use transform="translate(579.1565234375 38.3734375)scale(0.7)" xlink:href="#Cmr10-30"/>
     <use transform="translate(614.1565234375 38.3734375)scale(0.7)" xlink:href="#Cmr10-39"/>
     <use transform="translate(655.5338671874999 0.109375)" xlink:href="#Cmmi10-73"/>
     <use transform="translate(702.3112109374999 0.109375)" xlink:href="#Cmr10-5d"/>
     <use transform="translate(729.9967578124999 0.109375)" xlink:href="#Cmmi10-3b"/>
     <use transform="translate(799.628029296875 0.109375)" xlink:href="#Cmmi10-75"/>
     <use transform="translate(856.805763671875 -16.896874999999994)scale(0.7)" xlink:href="#Cmmi10-78"/>
     <use transform="translate(920.697755859375 0.109375)" xlink:href="#Cmr10-3d"/>
     <use transform="translate(1015.941896484375 0.109375)" xlink:href="#Cmr10-35"/>
     <use transform="translate(1065.9418964843749 0.109375)" xlink:href="#Cmmi10-3a"/>
     <use transform="translate(1111.1860371093749 0.109375)" xlink:href="#Cmr10-30"/>
     <use transform="translate(1178.7446308593749 0.109375)" xlink:href="#Cmsy10-a2"/>
     <use transform="translate(1223.9887714843749 0.109375)" xlink:href="#Cmr10-31"/>
     <use transform="translate(1273.9887714843749 0.109375)" xlink:href="#Cmr10-30"/>
     <use transform="translate(1328.452912109375 38.3734375)scale(0.7)" xlink:href="#Cmr10-2b"/>
     <use transform="translate(1382.832794921875 38.3734375)scale(0.7)" xlink:href="#Cmr10-30"/>
     <use transform="translate(1417.832794921875 38.3734375)scale(0.7)" xlink:href="#Cmr10-35"/>
     <use transform="translate(1459.2101386718748 38.396875)scale(0.7)" xlink:href="#Cmmi10-6d"/>
     <use transform="translate(1473.2101386718748 -24.571875000000006)scale(0.7)" xlink:href="#Cmmi10-73"/>
     <path d="M 1459.210139 12.609375 
L 1459.210139 18.859375 
L 1520.665217 18.859375 
L 1520.665217 12.609375 
L 1459.210139 12.609375 
z
"/>
    </g>
   </g>
  </g>
 </g>
 <defs>
  <clipPath id="p9e24ab4db3">
   <rect height="70.3026964583" width="344.986989874" x="67.213125" y="32.2451082292"/>
  </clipPath>
  <clipPath id="p0d00cdb861">
   <rect height="70.3026964583" width="344.986989874" x="67.213125" y="310.441108229"/>
  </clipPath>
  <clipPath id="p06db03a3f5">
   <rect height="70.3026964583" width="344.986989874" x="67.213125" y="171.343108229"/>
  </clipPath>
 </defs>
</svg>
